<svg width="84" height="86" viewBox="0 0 84 86" fill="none" xmlns="http://www.w3.org/2000/svg">
<g filter="url(#filter0_d_753_333)">
<ellipse cx="40" cy="45" rx="37" ry="34" fill="#FBBF5D" fill-opacity="0.5"/>
<path d="M40 11.5C60.199 11.5 76.5 26.5374 76.5 45C76.5 63.4626 60.199 78.5 40 78.5C19.801 78.5 3.5 63.4626 3.5 45C3.5 26.5374 19.801 11.5 40 11.5Z" stroke="#F89781"/>
</g>
<path d="M26.5618 40.332C25.1221 41.0071 23.1545 42.04 20.9907 43.5662C17.2285 46.2147 15.1484 48.7392 13.1346 51.2261C11.4814 53.263 9.35801 56.151 10.186 57.3166C10.665 57.9888 11.9604 57.8387 12.8547 57.7378C15.6562 57.4146 17.6324 55.9202 18.8153 54.9883C20.9041 53.3438 23.5988 51.0328 26.5647 47.9371V40.332H26.5618Z" fill="#E4E7EE"/>
<path d="M24.917 43.3779C23.6303 43.9809 21.8732 44.9041 19.9373 46.2687C16.5762 48.6374 14.7153 50.8935 12.915 53.1151C11.4379 54.9355 9.53948 57.5177 10.2781 58.5563C10.7051 59.1564 11.8649 59.0237 12.664 58.9314C15.1683 58.6429 16.934 57.3071 17.9899 56.4762C19.8566 55.0077 22.2656 52.9391 24.917 50.1723V43.375V43.3779Z" fill="#D4D9E2"/>
<path d="M54.3466 40.332C55.7863 41.0071 57.7539 42.04 59.9177 43.5662C63.6799 46.2147 65.76 48.7392 67.7738 51.2261C70.6791 54.8123 70.9705 56.1827 70.7224 57.3165C70.7022 57.4118 70.2781 59.238 68.951 59.6737C67.2747 60.2247 65.3792 58.1561 62.0931 54.9883C60.2726 53.2341 57.6587 50.7905 54.3438 47.9371C54.3438 45.4011 54.3438 42.868 54.3438 40.332H54.3466Z" fill="#D4D9E2"/>
<path d="M54.1259 41.8516C55.5656 42.5267 57.5332 43.5595 59.697 45.0857C63.4592 47.7343 65.5393 50.2587 67.5531 52.7457C70.4584 56.3318 70.7498 57.7022 70.5017 58.8361C70.4815 58.9313 70.0574 60.7575 68.7303 61.1932C67.054 61.7442 65.1585 59.6756 61.8724 56.5078C60.0519 54.7537 57.438 52.31 54.123 49.4567C54.123 46.9207 54.123 44.3876 54.123 41.8516H54.1259Z" fill="#E4E7EE"/>
<path d="M62.7227 25.8978L63.9719 25.7045C65.9886 25.3929 67.4773 23.659 67.4773 21.6163V17.6291C67.4773 15.5894 65.9886 13.8525 63.9719 13.541L62.7227 13.3477V25.8949V25.8978Z" fill="#C4CBD5"/>
<path d="M17.5134 25.8978L16.2642 25.7045C14.2475 25.3929 12.7588 23.659 12.7588 21.6163V17.6291C12.7588 15.5894 14.2475 13.8525 16.2642 13.541L17.5134 13.3477V25.8949V25.8978Z" fill="#D4D9E2"/>
<path d="M48.8653 6.06446C48.8653 9.41404 45.1031 12.1289 40.4639 12.1289C35.8247 12.1289 32.0625 9.41404 32.0625 6.06446C32.0625 2.71487 32.0625 0 40.4639 0C48.8653 0 48.8653 2.71487 48.8653 6.06446Z" fill="#D4D9E2"/>
<path d="M17.0234 25.7257C17.0234 28.5877 18.59 31.2189 21.1058 32.5806C24.3054 34.3117 29.9919 35.9158 40.0782 35.9158C50.1645 35.9158 55.851 34.3117 59.0505 32.5806C61.5663 31.2189 63.1329 28.5877 63.1329 25.7257V13.1784C63.1329 10.3164 61.5663 7.68521 59.0505 6.32344C55.851 4.59239 50.1645 2.98828 40.0782 2.98828C29.9919 2.98828 24.3054 4.59239 21.1058 6.32344C18.59 7.68521 17.0234 10.3164 17.0234 13.1784V25.7257Z" fill="#E4E7EE"/>
<path d="M51.9582 9.67253C51.6322 7.67605 50.0627 4.98138 48.6865 3.46094C53.7614 4.02353 57.1975 5.32182 59.0498 6.32583C61.5656 7.68759 63.1322 10.3188 63.1322 13.1808V25.7281C63.1322 28.5901 61.5656 31.2213 59.0498 32.583C55.8502 34.3141 50.1637 35.9182 40.0774 35.9182C29.9912 35.9182 24.3047 34.3141 21.1051 32.583C19.9482 31.957 18.9932 31.0655 18.3008 30.0038C23.2285 31.7983 28.4563 32.7706 33.7014 32.8629C34.6996 32.8802 35.7065 32.8629 36.7105 32.7936L51.9611 9.67253H51.9582Z" fill="#D4D9E2"/>
<path d="M59.956 49.3786C59.956 52.7398 59.6444 55.8182 59.0645 58.5994C59.0068 58.8821 58.9433 59.1649 58.8798 59.4418C56.2313 70.8235 48.9869 76.9889 40.4643 76.9889C31.9418 76.9889 24.7002 70.8264 22.0488 59.4418C21.9824 59.1649 21.9219 58.885 21.8641 58.5994C21.2842 55.8182 20.9727 52.7398 20.9727 49.3786C20.9727 41.9005 28.7941 37.1055 40.4643 37.1055C52.1345 37.1055 59.956 41.8976 59.956 49.3786Z" fill="#E4E7EE"/>
<path d="M40.4634 32.8806C30.7551 32.8806 25.7725 31.2881 23.3 29.9523C21.6324 29.0521 20.5967 27.3124 20.5967 25.414V16.1385C20.5967 14.2401 21.6324 12.5004 23.3 11.6002C25.7725 10.2644 30.7551 8.67188 40.4634 8.67188C50.1717 8.67188 55.1543 10.2644 57.6268 11.6002C59.2944 12.5004 60.3301 14.2401 60.3301 16.1385V25.414C60.3301 27.3124 59.2944 29.0521 57.6268 29.9523C55.1543 31.2881 50.1717 32.8806 40.4634 32.8806Z" fill="#214861"/>
<path d="M45.2546 17.2492C45.3988 15.6537 47.0145 14.543 48.5551 14.543C50.0958 14.543 51.7114 15.6566 51.8557 17.2492C52.0143 18.9947 50.3381 20.5497 48.5551 20.5497C46.7721 20.5497 45.0959 18.9947 45.2546 17.2492Z" fill="#87D3E2"/>
<path d="M43.2233 25.7585C43.2233 26.2835 42.9146 26.7596 42.4155 27.1029C41.9164 27.4462 41.2268 27.6597 40.4652 27.6597C38.9418 27.6597 37.707 26.8086 37.707 25.7585C37.707 25.6834 37.7503 25.6142 37.8224 25.5652C37.8946 25.5161 37.9927 25.4844 38.1023 25.4844H42.8281C43.0444 25.4844 43.2233 25.6055 43.2233 25.7556V25.7585Z" fill="#87D3E2"/>
<path d="M59.9555 49.381C59.9555 52.7421 59.6439 55.8205 59.064 58.6017C59.0063 58.8845 58.9429 59.1672 58.8794 59.4442C56.2309 70.8259 48.9864 76.9913 40.4639 76.9913C35.5217 76.9913 31.0094 74.9198 27.5762 70.9586C30.0429 71.8616 32.8443 72.1415 35.4871 71.7347C40.3052 70.9932 44.5145 68.2033 47.189 64.6489C49.8635 61.0973 51.1098 56.8418 51.4272 52.6094C51.7244 48.6222 51.1762 44.4475 48.7614 41.0431C47.7141 39.5659 46.26 38.2705 44.5751 37.3242C53.9343 38.3282 59.9555 42.8232 59.9555 49.3839V49.381Z" fill="#D4D9E2"/>
<path d="M60.3311 16.1384V25.4139C60.3311 27.3123 59.2954 29.052 57.6278 29.9522C55.1553 31.288 50.1727 32.8805 40.4644 32.8805C39.1228 32.8805 37.8736 32.8488 36.708 32.794C47.6915 31.4813 53.3405 25.9535 53.3405 18.2156C53.3405 16.0201 52.8472 13.1956 51.9586 9.67578C54.6186 10.2355 56.4218 10.9481 57.6278 11.6001C59.2954 12.5032 60.3311 14.24 60.3311 16.1384Z" fill="#173949"/>
<path d="M29.0768 17.2492C29.2211 15.6537 30.8367 14.543 32.3774 14.543C33.918 14.543 35.5337 15.6566 35.6779 17.2492C35.8366 18.9947 34.1604 20.5497 32.3774 20.5497C30.5944 20.5497 28.9182 18.9947 29.0768 17.2492Z" fill="#87D3E2"/>
<defs>
<filter id="filter0_d_753_333" x="0" y="8" width="84" height="78" filterUnits="userSpaceOnUse" color-interpolation-filters="sRGB">
<feFlood flood-opacity="0" result="BackgroundImageFix"/>
<feColorMatrix in="SourceAlpha" type="matrix" values="0 0 0 0 0 0 0 0 0 0 0 0 0 0 0 0 0 0 127 0" result="hardAlpha"/>
<feOffset dx="2" dy="2"/>
<feGaussianBlur stdDeviation="2.5"/>
<feColorMatrix type="matrix" values="0 0 0 0 0 0 0 0 0 0 0 0 0 0 0 0 0 0 0.15 0"/>
<feBlend mode="normal" in2="BackgroundImageFix" result="effect1_dropShadow_753_333"/>
<feBlend mode="normal" in="SourceGraphic" in2="effect1_dropShadow_753_333" result="shape"/>
</filter>
</defs>
</svg>
