<svg width="94" height="72" viewBox="0 0 94 72" fill="none" xmlns="http://www.w3.org/2000/svg">
<g clip-path="url(#clip0_771_3597)">
<path d="M9.02229 62.6932H7.41753C7.23923 62.6932 7.09658 62.6575 6.9896 62.5505C6.88261 62.4792 6.77563 62.3722 6.73997 62.2296L6.20505 60.6605H2.81724L2.28232 62.2296C2.24666 62.3366 2.17533 62.4436 2.03269 62.5505C1.92571 62.6575 1.78306 62.6932 1.60475 62.6932H0L3.45914 53.7422H5.59881L9.02229 62.6932ZM3.28083 59.2697H5.70579L4.88559 56.8091C4.84993 56.6664 4.7786 56.4881 4.70728 56.2742C4.63596 56.0602 4.56464 55.8462 4.49331 55.5966C4.42199 55.8462 4.35067 56.0602 4.27935 56.2742C4.20802 56.4881 4.1367 56.6664 4.06538 56.8091L3.28083 59.2697Z" fill="#6EA1D6"/>
<path d="M13.159 61.0532C13.4443 61.0532 13.6939 61.0175 13.9079 60.9105C14.1218 60.8035 14.3002 60.6966 14.4785 60.5183C14.6211 60.3399 14.7281 60.126 14.8351 59.8764C14.9064 59.6267 14.9421 59.3414 14.9421 59.0205V53.707H17.0104V59.0205C17.0104 59.5554 16.9391 60.0547 16.7608 60.5183C16.5825 60.9819 16.3328 61.3741 16.0119 61.6951C15.6909 62.016 15.263 62.3013 14.7994 62.4796C14.3358 62.6579 13.8009 62.7649 13.1947 62.7649C12.5884 62.7649 12.0535 62.6579 11.5899 62.4796C11.1263 62.3013 10.6984 62.0517 10.3774 61.6951C10.0565 61.3741 9.80684 60.9819 9.62853 60.5183C9.45023 60.0547 9.37891 59.5554 9.37891 59.0205V53.707H11.4473V58.9848C11.4473 59.3058 11.4829 59.5911 11.5542 59.8407C11.6256 60.0903 11.7325 60.3043 11.9109 60.4826C12.0535 60.6609 12.2318 60.8035 12.4814 60.8749C12.6241 60.9819 12.8737 61.0532 13.159 61.0532Z" fill="#6EA1D6"/>
<path d="M20.3984 59.3767V62.6932H18.3301V53.7422H21.2543C21.8962 53.7422 22.4668 53.8135 22.8947 53.9562C23.3583 54.0988 23.7149 54.2771 24.0002 54.5268C24.2855 54.7764 24.4995 55.0617 24.6421 55.3826C24.7848 55.7036 24.8561 56.0602 24.8561 56.4525C24.8561 56.7378 24.8204 57.023 24.7491 57.2727C24.6778 57.5223 24.5708 57.7719 24.3925 57.9859C24.2498 58.1999 24.0359 58.4138 23.8219 58.5565C23.6079 58.7348 23.3583 58.8774 23.0374 58.9844C23.18 59.0557 23.3226 59.1271 23.4296 59.234C23.5366 59.341 23.6436 59.448 23.7506 59.5907L25.6406 62.6932H23.7506C23.394 62.6932 23.1443 62.5505 23.0017 62.3009L21.5039 59.6976C21.4326 59.5907 21.3613 59.4837 21.29 59.448C21.2186 59.4123 21.076 59.3767 20.9333 59.3767H20.3984ZM20.3984 57.9502H21.2186C21.5039 57.9502 21.7536 57.9146 21.9319 57.8433C22.1458 57.7719 22.2885 57.6649 22.4311 57.558C22.5738 57.4153 22.6451 57.2727 22.7164 57.13C22.7877 56.9517 22.7877 56.7734 22.7877 56.5951C22.7877 56.2028 22.6451 55.8819 22.3955 55.6679C22.1458 55.454 21.7536 55.347 21.2186 55.347H20.3984V57.9502Z" fill="#6EA1D6"/>
<path d="M35.019 58.198C35.019 58.8399 34.912 59.4462 34.698 60.0168C34.484 60.5873 34.1631 61.0509 33.7708 61.4789C33.3785 61.9068 32.8793 62.2277 32.3087 62.4417C31.7381 62.6913 31.0962 62.7983 30.4187 62.7983C29.7411 62.7983 29.0992 62.6913 28.5286 62.4417C27.958 62.1921 27.4588 61.8711 27.0665 61.4789C26.6742 61.0509 26.3533 60.5873 26.1393 60.0168C25.9253 59.4462 25.8184 58.8756 25.8184 58.198C25.8184 57.5561 25.9253 56.9499 26.1393 56.3793C26.3533 55.8087 26.6742 55.3451 27.0665 54.9172C27.4588 54.5249 27.958 54.204 28.5286 53.9543C29.0992 53.7047 29.7411 53.5977 30.4187 53.5977C31.0962 53.5977 31.7381 53.7047 32.3087 53.9543C32.8793 54.204 33.3785 54.5249 33.7708 54.9172C34.1631 55.3095 34.484 55.8087 34.698 56.3793C34.912 56.9499 35.019 57.5561 35.019 58.198ZM32.8793 58.198C32.8793 57.7701 32.808 57.3422 32.701 57.0212C32.594 56.6646 32.4157 56.3793 32.2017 56.1297C31.9877 55.8801 31.7381 55.7017 31.4172 55.5591C31.0962 55.4165 30.7396 55.3451 30.3473 55.3451C29.9551 55.3451 29.5984 55.4165 29.2775 55.5591C28.9565 55.7017 28.7069 55.8801 28.493 56.1297C28.279 56.3793 28.1007 56.6646 27.9937 57.0212C27.8867 57.3778 27.8154 57.7701 27.8154 58.198C27.8154 58.626 27.8867 59.0539 27.9937 59.4105C28.1007 59.7671 28.279 60.0524 28.493 60.302C28.7069 60.5517 28.9565 60.73 29.2775 60.8726C29.5984 61.0153 29.9551 61.0509 30.3473 61.0509C30.7396 61.0509 31.0962 60.9796 31.4172 60.8726C31.7381 60.73 31.9877 60.5517 32.2017 60.302C32.4157 60.0524 32.594 59.7671 32.701 59.4105C32.8436 59.0539 32.8793 58.6616 32.8793 58.198Z" fill="#6EA1D6"/>
<path d="M40.5462 61.1929C40.8315 61.1929 41.0811 61.1573 41.2951 61.1216C41.509 61.086 41.723 61.0146 41.937 60.9077V59.5525H41.0454C40.9028 59.5525 40.7958 59.5169 40.7245 59.4456C40.6532 59.3742 40.6175 59.3029 40.6175 59.1959V58.0548H43.7914V61.8349C43.5774 62.0132 43.3278 62.1558 43.0781 62.2628C42.8285 62.3698 42.5789 62.4768 42.2936 62.5481C42.0083 62.6194 41.723 62.6907 41.4021 62.7264C41.0811 62.762 40.7602 62.7977 40.3679 62.7977C39.726 62.7977 39.1197 62.6907 38.5492 62.4411C37.9786 62.2271 37.515 61.9062 37.087 61.4782C36.6948 61.086 36.3738 60.5867 36.1242 60.0161C35.9102 59.4456 35.7676 58.8393 35.7676 58.1974C35.7676 57.5198 35.8746 56.9136 36.0885 56.343C36.3025 55.7724 36.6234 55.3089 37.0514 54.8809C37.4793 54.4886 37.9429 54.1677 38.5492 53.9537C39.1197 53.7398 39.7973 53.6328 40.5105 53.6328C40.8671 53.6328 41.2237 53.6684 41.5447 53.7398C41.8657 53.8111 42.1866 53.8824 42.4362 53.9894C42.7215 54.0964 42.9711 54.239 43.1851 54.3817C43.3991 54.5243 43.613 54.7026 43.7914 54.8453L43.1851 55.7725C43.1138 55.8438 43.0425 55.9151 42.9711 55.9864C42.8998 56.0221 42.7928 56.0577 42.7215 56.0577C42.6145 56.0577 42.4719 56.0221 42.3292 55.9508C42.1509 55.8438 42.0083 55.7724 41.8656 55.7011C41.723 55.6298 41.5804 55.5585 41.4377 55.5228C41.2951 55.4872 41.1168 55.4515 40.9741 55.4158C40.8315 55.3802 40.6175 55.3802 40.4035 55.3802C40.0113 55.3802 39.6547 55.4515 39.3694 55.5941C39.0484 55.7368 38.7988 55.9151 38.5848 56.1647C38.3709 56.4143 38.1925 56.6996 38.0856 57.0563C37.9786 57.4129 37.9073 57.8051 37.9073 58.2331C37.9073 58.6967 37.9786 59.1246 38.1212 59.4812C38.2639 59.8378 38.4422 60.1588 38.6561 60.4084C38.8701 60.658 39.1554 60.872 39.4763 60.979C39.833 61.1216 40.1896 61.1929 40.5462 61.1929Z" fill="#6EA1D6"/>
<path d="M48.784 61.0532C49.0693 61.0532 49.3189 61.0175 49.5329 60.9105C49.7468 60.8035 49.9252 60.6966 50.1035 60.5183C50.2461 60.3399 50.3531 60.126 50.4601 59.8764C50.5314 59.6267 50.5671 59.3414 50.5671 59.0205V53.707H52.6354V59.0205C52.6354 59.5554 52.5641 60.0547 52.3858 60.5183C52.2075 60.9819 51.9578 61.3741 51.6369 61.6951C51.3159 62.016 50.888 62.3013 50.4244 62.4796C49.9608 62.6579 49.4259 62.7649 48.8197 62.7649C48.2134 62.7649 47.6785 62.6579 47.2149 62.4796C46.7513 62.3013 46.3234 62.0517 46.0024 61.6951C45.6815 61.3741 45.4318 60.9819 45.2535 60.5183C45.0752 60.0547 45.0039 59.5554 45.0039 59.0205V53.707H47.0723V58.9848C47.0723 59.3058 47.1079 59.5911 47.1792 59.8407C47.2506 60.0903 47.3575 60.3043 47.5358 60.4826C47.7142 60.6609 47.8568 60.8035 48.1064 60.8749C48.2847 60.9819 48.5344 61.0532 48.784 61.0532Z" fill="#6EA1D6"/>
<path d="M56.0605 59.3767V62.6932H53.9922V53.7422H56.9164C57.5583 53.7422 58.1289 53.8135 58.5568 53.9562C59.0204 54.0988 59.377 54.2771 59.6623 54.5268C59.9476 54.7764 60.1616 55.0617 60.3042 55.3826C60.4469 55.7036 60.5182 56.0602 60.5182 56.4525C60.5182 56.7378 60.4825 57.023 60.4112 57.2727C60.3399 57.5223 60.2329 57.7719 60.0546 57.9859C59.9119 58.1999 59.698 58.4138 59.484 58.5565C59.27 58.7348 59.0204 58.8774 58.6995 58.9844C58.8421 59.0557 58.9848 59.1271 59.0917 59.234C59.1987 59.341 59.3057 59.448 59.4127 59.5907L61.3027 62.6932H59.4127C59.0561 62.6932 58.8065 62.5505 58.6638 62.3009L57.166 59.6976C57.0947 59.5907 57.0234 59.4837 56.9521 59.448C56.8807 59.4123 56.7381 59.3767 56.5955 59.3767H56.0605ZM56.0605 57.9502H56.8807C57.166 57.9502 57.4157 57.9146 57.594 57.8433C57.8079 57.7719 57.9506 57.6649 58.0932 57.558C58.2359 57.4153 58.3072 57.2727 58.3785 57.13C58.4498 56.9517 58.4498 56.7734 58.4498 56.5951C58.4498 56.2028 58.3072 55.8819 58.0576 55.6679C57.8079 55.454 57.4157 55.347 56.8807 55.347H56.0605V57.9502Z" fill="#6EA1D6"/>
<path d="M65.5086 61.0532C65.7939 61.0532 66.0435 61.0175 66.2575 60.9105C66.4715 60.8035 66.6498 60.6966 66.8281 60.5183C66.9707 60.3399 67.0777 60.126 67.1847 59.8764C67.256 59.6267 67.2917 59.3414 67.2917 59.0205V53.707H69.36V59.0205C69.36 59.5554 69.2887 60.0547 69.1104 60.5183C68.9321 60.9819 68.6825 61.3741 68.3615 61.6951C68.0406 62.016 67.6126 62.3013 67.149 62.4796C66.6854 62.6579 66.1505 62.7649 65.5443 62.7649C64.938 62.7649 64.4031 62.6579 63.9395 62.4796C63.4759 62.3013 63.048 62.0517 62.727 61.6951C62.4061 61.3741 62.1564 60.9819 61.9781 60.5183C61.7998 60.0547 61.7285 59.5554 61.7285 59.0205V53.707H63.7969V58.9848C63.7969 59.3058 63.8325 59.5911 63.9039 59.8407C63.9752 60.0903 64.0822 60.3043 64.2605 60.4826C64.4031 60.6609 64.5814 60.8035 64.831 60.8749C64.9737 60.9819 65.2233 61.0532 65.5086 61.0532Z" fill="#6EA1D6"/>
<path d="M72.7495 57.3797H73.0704C73.3914 57.3797 73.6054 57.2727 73.748 57.0944L75.745 54.1701C75.852 54.0275 75.9947 53.8849 76.1373 53.8492C76.28 53.7779 76.4583 53.7779 76.6722 53.7779H78.4909L75.852 57.3797C75.745 57.5223 75.6737 57.6293 75.5667 57.7006C75.4597 57.7719 75.3528 57.8433 75.2458 57.9146C75.3884 57.9859 75.5311 58.0572 75.6737 58.1642C75.8163 58.2712 75.9233 58.4138 76.0303 58.5565L78.7406 62.6932H76.8862C76.7792 62.6932 76.6722 62.6932 76.5652 62.6575C76.4939 62.6575 76.4226 62.6219 76.3513 62.5862C76.28 62.5505 76.2443 62.5149 76.2086 62.4792C76.173 62.4435 76.1373 62.3722 76.066 62.3009L74.0333 59.1984C73.962 59.0914 73.855 59.0201 73.748 58.9488C73.641 58.9131 73.4984 58.8774 73.2844 58.8774H72.7851V62.6932H70.7168V53.7422H72.7851V57.3797H72.7495Z" fill="#6EA1D6"/>
<path d="M83.1609 61.0532C83.4462 61.0532 83.6959 61.0175 83.9098 60.9105C84.1238 60.8035 84.3021 60.6966 84.4804 60.5183C84.6231 60.3399 84.73 60.126 84.837 59.8764C84.9083 59.6267 84.944 59.3414 84.944 59.0205V53.707H87.0124V59.0205C87.0124 59.5554 86.941 60.0547 86.7627 60.5183C86.5844 60.9819 86.3348 61.3741 86.0138 61.6951C85.6929 62.016 85.265 62.3013 84.8014 62.4796C84.3378 62.6579 83.8028 62.7649 83.1966 62.7649C82.5904 62.7649 82.0554 62.6579 81.5918 62.4796C81.1283 62.3013 80.7003 62.0517 80.3794 61.6951C80.0584 61.3741 79.8088 60.9819 79.6305 60.5183C79.4522 60.0547 79.3809 59.5554 79.3809 59.0205V53.707H81.4492V58.9848C81.4492 59.3058 81.4849 59.5911 81.5562 59.8407C81.6275 60.0903 81.7345 60.3043 81.9128 60.4826C82.0554 60.6609 82.2338 60.8035 82.4834 60.8749C82.626 60.9819 82.8756 61.0532 83.1609 61.0532Z" fill="#6EA1D6"/>
<path d="M90.4375 61.0175H93.754V62.6579H88.3691V53.707H90.4375V61.0175Z" fill="#6EA1D6"/>
<path d="M26.6737 70.6114C26.6737 70.8254 26.638 71.0037 26.6024 71.182C26.5667 71.3603 26.4597 71.5029 26.3884 71.6099C26.2814 71.7169 26.1744 71.8239 25.9961 71.8952C25.8535 71.9665 25.6752 72.0022 25.4612 72.0022C25.3542 72.0022 25.2829 72.0022 25.1759 72.0022C25.0689 72.0022 24.9976 71.9665 24.8906 71.9665L24.9263 71.5386C24.9263 71.5029 24.9263 71.4673 24.9619 71.4316C24.9976 71.3959 25.0333 71.3959 25.0689 71.3959C25.1046 71.3959 25.1403 71.3959 25.1759 71.4316C25.2116 71.4316 25.2829 71.4673 25.3542 71.4673C25.4612 71.4673 25.5325 71.4673 25.6038 71.4316C25.6752 71.3959 25.7465 71.3603 25.7822 71.289C25.8178 71.2176 25.8535 71.1463 25.8891 71.0393C25.9248 70.9323 25.9248 70.8254 25.9248 70.6827V68.2578H26.6024V70.6114H26.6737Z" fill="#FAFAFA"/>
<path d="M30.9881 70.0736C30.9881 70.3589 30.9525 70.6085 30.8455 70.8225C30.7385 71.0721 30.6315 71.2504 30.4532 71.4287C30.2749 71.607 30.0966 71.714 29.847 71.821C29.5973 71.928 29.3477 71.9637 29.0624 71.9637C28.7771 71.9637 28.5275 71.928 28.2779 71.821C28.0283 71.714 27.8499 71.607 27.6716 71.4287C27.4933 71.2504 27.3863 71.0721 27.2794 70.8225C27.1724 70.5729 27.1367 70.3232 27.1367 70.0736C27.1367 69.7883 27.1724 69.5387 27.2794 69.3247C27.3863 69.0751 27.4933 68.8968 27.6716 68.7185C27.8499 68.5402 28.0283 68.4332 28.2779 68.3262C28.5275 68.2192 28.7771 68.1836 29.0624 68.1836C29.3477 68.1836 29.5973 68.2192 29.847 68.3262C30.0966 68.4332 30.2749 68.5402 30.4532 68.7185C30.6315 68.8968 30.7385 69.0751 30.8455 69.3247C30.9525 69.5387 30.9881 69.7883 30.9881 70.0736ZM30.2749 70.0736C30.2749 69.8597 30.2392 69.6813 30.2036 69.5387C30.1323 69.3604 30.0609 69.2534 29.954 69.1108C29.847 69.0038 29.74 68.8968 29.5973 68.8611C29.4547 68.7898 29.2764 68.7542 29.0981 68.7542C28.9198 68.7542 28.7415 68.7898 28.5988 68.8611C28.4562 68.9325 28.3135 69.0038 28.2422 69.1108C28.1352 69.2177 28.0639 69.3604 27.9926 69.5387C27.9213 69.717 27.9213 69.8953 27.9213 70.0736C27.9213 70.2876 27.9569 70.4659 27.9926 70.6085C28.0639 70.7868 28.1352 70.8938 28.2422 71.0365C28.3492 71.1435 28.4562 71.2504 28.5988 71.2861C28.7415 71.3574 28.9198 71.3931 29.0981 71.3931C29.2764 71.3931 29.4547 71.3574 29.5973 71.2861C29.74 71.2148 29.8826 71.1435 29.954 71.0365C30.0609 70.9295 30.1323 70.7868 30.2036 70.6085C30.2749 70.4659 30.2749 70.2876 30.2749 70.0736Z" fill="#FAFAFA"/>
<path d="M32.9858 70.5015V71.9637H32.3083V70.5015L30.9531 68.2192H31.5594C31.6307 68.2192 31.6664 68.2192 31.702 68.2549C31.7377 68.2906 31.7733 68.3262 31.7733 68.3619L32.4509 69.61C32.4866 69.6813 32.5222 69.7527 32.5579 69.824C32.5935 69.8953 32.6292 69.9666 32.6292 70.0023C32.6649 69.931 32.6649 69.8596 32.7005 69.7883C32.7362 69.717 32.7719 69.6457 32.8075 69.5744L33.4851 68.3262C33.5207 68.2906 33.5207 68.2549 33.5564 68.2192C33.5921 68.1836 33.6277 68.1836 33.699 68.1836H34.3053L32.9858 70.5015Z" fill="#FAFAFA"/>
<path d="M39.2616 70.0736C39.2616 70.3589 39.2259 70.6085 39.1189 70.8225C39.0119 71.0721 38.905 71.2504 38.7267 71.4287C38.5483 71.607 38.37 71.714 38.1204 71.821C37.8708 71.928 37.6212 71.9637 37.3359 71.9637C37.0506 71.9637 36.8009 71.928 36.5513 71.821C36.3017 71.714 36.1234 71.607 35.9451 71.4287C35.7668 71.2504 35.6598 71.0721 35.5528 70.8225C35.4458 70.5729 35.4102 70.3232 35.4102 70.0736C35.4102 69.7883 35.4458 69.5387 35.5528 69.3247C35.6598 69.0751 35.7668 68.8968 35.9451 68.7185C36.1234 68.5402 36.3017 68.4332 36.5513 68.3262C36.8009 68.2192 37.0506 68.1836 37.3359 68.1836C37.6212 68.1836 37.8708 68.2192 38.1204 68.3262C38.37 68.4332 38.5483 68.5402 38.7267 68.7185C38.905 68.8968 39.0119 69.0751 39.1189 69.3247C39.2259 69.5387 39.2616 69.7883 39.2616 70.0736ZM38.5483 70.0736C38.5483 69.8597 38.5127 69.6813 38.477 69.5387C38.4057 69.3604 38.3344 69.2534 38.2274 69.1108C38.1204 69.0038 38.0134 68.8968 37.8708 68.8611C37.7281 68.7898 37.5498 68.7542 37.3715 68.7542C37.1932 68.7542 37.0149 68.7898 36.8723 68.8611C36.7296 68.9325 36.587 69.0038 36.5157 69.1108C36.4087 69.2177 36.3374 69.3604 36.266 69.5387C36.1947 69.717 36.1947 69.8953 36.1947 70.0736C36.1947 70.2876 36.2304 70.4659 36.266 70.6085C36.3374 70.7868 36.4087 70.8938 36.5157 71.0365C36.6226 71.1435 36.7296 71.2504 36.8723 71.2861C37.0149 71.3574 37.1932 71.3931 37.3715 71.3931C37.5498 71.3931 37.7281 71.3574 37.8708 71.2861C38.0134 71.2148 38.1561 71.1435 38.2274 71.0365C38.3344 70.9295 38.4057 70.7868 38.477 70.6085C38.5483 70.4659 38.5483 70.2876 38.5483 70.0736Z" fill="#FAFAFA"/>
<path d="M42.1505 68.2188V68.7536H40.5101V69.8592H41.9009V70.4297H40.5101V71.9632H39.7969V68.2544H42.1505V68.2188Z" fill="#FAFAFA"/>
<path d="M44.3983 71.3569H45.896V71.9276H43.7207V68.2188H44.3983V71.3569Z" fill="#FAFAFA"/>
<path d="M48.713 68.2188V68.7536H47.0726V69.7878H48.3564V70.3228H47.0726V71.3926H48.713V71.9632H46.3594V68.2544H48.713V68.2188Z" fill="#FAFAFA"/>
<path d="M52.5647 71.9276H52.0298C51.9584 71.9276 51.9228 71.9276 51.8871 71.8919C51.8515 71.8563 51.8158 71.8206 51.8158 71.7849L51.5305 71.0359H49.9971L49.7118 71.7849C49.7118 71.8206 49.6761 71.8563 49.6405 71.8919C49.6048 71.9276 49.5335 71.9276 49.4978 71.9276H48.9629L50.425 68.2188H51.1382L52.5647 71.9276ZM50.1754 70.5368H51.3522L50.8886 69.2887C50.8529 69.2173 50.8529 69.1817 50.8173 69.1103C50.7816 69.039 50.7816 68.9676 50.746 68.8606C50.7103 68.9319 50.7103 69.039 50.6746 69.1103C50.639 69.1817 50.639 69.2529 50.6033 69.3242L50.1754 70.5368Z" fill="#FAFAFA"/>
<path d="M53.6698 70.5044V71.9665H52.9922V68.2578H54.1333C54.383 68.2578 54.5969 68.2934 54.7752 68.3291C54.9536 68.3647 55.0962 68.4717 55.2032 68.543C55.3102 68.65 55.4172 68.757 55.4528 68.864C55.5241 69.0066 55.5241 69.1493 55.5241 69.2919C55.5241 69.4346 55.4885 69.5416 55.4528 69.6485C55.4172 69.7555 55.3458 69.8625 55.3102 69.9695C55.2745 70.0765 55.1675 70.1478 55.0605 70.2191C54.9536 70.2904 54.8466 70.3261 54.7039 70.3974C54.7752 70.4331 54.8822 70.5044 54.9179 70.6114L55.8451 72.0022H55.2388C55.1675 72.0022 55.1319 72.0022 55.0962 71.9665C55.0605 71.9309 55.0249 71.8952 54.9892 71.8595L54.2047 70.6827C54.169 70.6471 54.1333 70.6114 54.0977 70.5757C54.062 70.5401 54.0264 70.5401 53.955 70.5401H53.6698V70.5044ZM53.6698 70.0052H54.0977C54.2403 70.0052 54.3473 70.0052 54.4543 69.9695C54.5613 69.9338 54.6326 69.8982 54.7039 69.8269C54.7752 69.7555 54.8109 69.6842 54.8466 69.6129C54.8822 69.5416 54.8822 69.4346 54.8822 69.3633C54.8822 69.185 54.8109 69.0423 54.7039 68.9353C54.5969 68.8283 54.383 68.7927 54.1333 68.7927H53.7054L53.6698 70.0052Z" fill="#FAFAFA"/>
<path d="M56.7722 68.2192C56.8079 68.2192 56.8079 68.2192 56.8435 68.2192L56.8792 68.2549C56.8792 68.2549 56.9148 68.2906 56.9148 68.3262L58.8762 70.8225C58.8762 70.7512 58.8762 70.7155 58.8762 70.6442C58.8762 70.5729 58.8762 70.5372 58.8762 70.4659V68.2192H59.4824V71.928H59.1258C59.0545 71.928 59.0188 71.928 58.9832 71.8923C58.9475 71.8923 58.9119 71.8567 58.8762 71.7854L56.9148 69.2891C56.9148 69.3604 56.9148 69.3961 56.9148 69.4674C56.9148 69.5387 56.9148 69.5744 56.9148 69.61V71.8923H56.3086V68.1836H56.6652C56.7365 68.2192 56.7722 68.2192 56.7722 68.2192Z" fill="#FAFAFA"/>
<path d="M61.0155 71.9276H60.3379V68.2188H61.0155V71.9276Z" fill="#FAFAFA"/>
<path d="M62.2995 68.2192C62.3352 68.2192 62.3352 68.2192 62.3709 68.2192L62.4065 68.2549C62.4065 68.2549 62.4422 68.2906 62.4422 68.3262L64.4035 70.8225C64.4035 70.7512 64.4035 70.7155 64.4035 70.6442C64.4035 70.5729 64.4035 70.5372 64.4035 70.4659V68.2192H65.0098V71.928H64.6532C64.5818 71.928 64.5462 71.928 64.5105 71.8923C64.4749 71.8923 64.4392 71.8567 64.4035 71.7854L62.4422 69.2891C62.4422 69.3604 62.4422 69.3961 62.4422 69.4674C62.4422 69.5387 62.4422 69.5744 62.4422 69.61V71.8923H61.8359V68.1836H62.1925C62.2282 68.2192 62.2639 68.2192 62.2995 68.2192Z" fill="#FAFAFA"/>
<path d="M67.4355 71.4293C67.5781 71.4293 67.7208 71.4293 67.8277 71.3936C67.9347 71.3579 68.0417 71.3223 68.1487 71.2866V70.6091H67.6851C67.6494 70.6091 67.6138 70.6091 67.5781 70.5734C67.5425 70.5377 67.5425 70.5021 67.5425 70.4664V70.0741H68.7906V71.5719C68.6836 71.6432 68.6123 71.7145 68.5053 71.7502C68.3983 71.7859 68.2913 71.8572 68.1844 71.8572C68.0774 71.8929 67.9347 71.9285 67.8277 71.9285C67.6851 71.9285 67.5425 71.9642 67.3998 71.9642C67.1145 71.9642 66.8649 71.9285 66.6509 71.8215C66.437 71.7146 66.223 71.6076 66.0447 71.4293C65.8664 71.251 65.7594 71.0726 65.6524 70.823C65.5454 70.5734 65.5098 70.3238 65.5098 70.0741C65.5098 69.7889 65.5454 69.5392 65.6524 69.2896C65.7594 69.04 65.8664 68.8617 66.0447 68.6833C66.223 68.505 66.4013 68.3981 66.6509 68.2911C66.9006 68.1841 67.1502 68.1484 67.4711 68.1484C67.7921 68.1484 68.0417 68.1841 68.2557 68.2911C68.4696 68.3981 68.6836 68.505 68.8263 68.6477L68.6123 68.9686C68.5766 69.04 68.5053 69.0756 68.4696 69.0756C68.434 69.0756 68.3983 69.0756 68.327 69.04C68.2557 69.0043 68.22 68.9686 68.1487 68.933C68.0774 68.8973 68.0417 68.8617 67.9704 68.8617C67.8991 68.826 67.8277 68.826 67.7208 68.7903C67.6494 68.7903 67.5425 68.7547 67.4355 68.7547C67.2572 68.7547 67.0789 68.7903 66.9362 68.8617C66.7936 68.933 66.6509 69.0043 66.5439 69.1113C66.437 69.2183 66.3656 69.3609 66.2943 69.5392C66.223 69.7175 66.223 69.8958 66.223 70.0741C66.223 70.2881 66.2587 70.4664 66.33 70.6447C66.4013 70.823 66.4726 70.9657 66.5796 71.0726C66.6866 71.1796 66.8292 71.2866 66.9719 71.3223C67.1145 71.3936 67.2572 71.4293 67.4355 71.4293Z" fill="#FAFAFA"/>
</g>
<path d="M46.741 6.00391C49.4321 12.8759 49.4321 19.5076 46.741 26.2834C44.0499 19.4595 44.0499 12.8278 46.741 6.00391Z" fill="url(#paint0_linear_771_3597)"/>
<path d="M68.2717 11.0078C64.4272 18.4565 58.7085 23.1659 50.7793 25.6168C54.5757 18.2642 60.2944 13.4587 68.2717 11.0078Z" fill="#EE842C"/>
<path d="M42.5588 25.6597C34.5815 23.2089 28.8628 18.4033 25.0664 11.0508C32.9956 13.4536 38.7143 18.2111 42.5588 25.6597Z" fill="#EE842C"/>
<path d="M35.4479 3.55859C39.2444 5.81721 42.5122 13.2178 41.8874 17.8792C38.3313 16.005 34.9193 8.50834 35.4479 3.55859Z" fill="#EE842C"/>
<path d="M51.4016 18.1125C51.3055 12.0575 53.4199 7.29995 57.9372 3.35938C58.0333 9.36635 55.9669 14.1239 51.4016 18.1125Z" fill="#EE842C"/>
<path d="M34.0062 25.4692C28.8161 27.1031 24.2028 26.3342 19.9258 23.1145C24.395 21.1922 30.1617 22.1533 34.0062 25.4692Z" fill="#EE842C"/>
<path d="M73.4581 23.0207C69.1331 26.3365 64.4717 27.1054 59.4258 25.4715C62.8378 22.2518 68.3161 21.1946 73.4581 23.0207Z" fill="#EE842C"/>
<path d="M24.3948 20.5181C25.6953 20.5181 26.7495 19.4638 26.7495 18.1633C26.7495 16.8628 25.6953 15.8086 24.3948 15.8086C23.0943 15.8086 22.04 16.8628 22.04 18.1633C22.04 19.4638 23.0943 20.5181 24.3948 20.5181Z" fill="#FBBF5D"/>
<path d="M68.6057 20.5181C69.9062 20.5181 70.9605 19.4638 70.9605 18.1633C70.9605 16.8628 69.9062 15.8086 68.6057 15.8086C67.3052 15.8086 66.251 16.8628 66.251 18.1633C66.251 19.4638 67.3052 20.5181 68.6057 20.5181Z" fill="#FBBF5D"/>
<path d="M31.0745 10.6665C32.375 10.6665 33.4292 9.61225 33.4292 8.31176C33.4292 7.01128 32.375 5.95703 31.0745 5.95703C29.774 5.95703 28.7197 7.01128 28.7197 8.31176C28.7197 9.61225 29.774 10.6665 31.0745 10.6665Z" fill="#FBBF5D"/>
<path d="M61.9758 10.6665C63.2763 10.6665 64.3306 9.61225 64.3306 8.31176C64.3306 7.01128 63.2763 5.95703 61.9758 5.95703C60.6753 5.95703 59.6211 7.01128 59.6211 8.31176C59.6211 9.61225 60.6753 10.6665 61.9758 10.6665Z" fill="#FBBF5D"/>
<path d="M46.6946 4.70947C47.9951 4.70947 49.0493 3.65521 49.0493 2.35473C49.0493 1.05425 47.9951 0 46.6946 0C45.3941 0 44.3398 1.05425 44.3398 2.35473C44.3398 3.65521 45.3941 4.70947 46.6946 4.70947Z" fill="#FBBF5D"/>
<path d="M35.1582 31.7368C27.9979 29.8146 19.9726 32.9382 13.0525 30.1991C12.8603 30.151 12.7161 30.0549 12.5239 30.1029C12.3797 30.151 12.2356 30.1991 12.1395 30.2952C9.68861 32.0732 7.28581 33.8513 4.83496 35.6294C6.37275 35.4371 11.5147 35.6774 12.9084 35.7255C15.6475 35.8696 18.3387 36.0619 21.0779 36.3982C26.5562 37.023 31.9866 38.0321 37.2727 39.4258C40.2522 40.1947 43.1836 41.348 46.1631 42.0688C44.5292 37.071 40.2041 33.0824 35.1582 31.7368Z" fill="#6EA1D6"/>
<path d="M37.5085 32.0212C33.4718 30.3393 29.0507 29.9548 24.7256 29.8587C21.7462 29.8107 18.5745 29.7626 16.2197 27.9365C17.325 27.7923 18.3822 27.504 19.3914 27.0234C19.8239 27.6962 20.5928 28.0326 21.3617 28.2729C25.1581 29.3782 29.1948 28.8496 33.0874 29.5223C38.1332 30.4354 42.7466 33.511 45.4858 37.836C45.8702 38.4127 46.6872 39.6621 46.6872 39.9985C46.6872 40.2868 46.6872 40.4791 46.6872 40.7674C45.9663 39.0374 44.2844 36.8268 43.4194 35.9618C41.7855 34.2799 39.7191 32.9343 37.5085 32.0212Z" fill="#6EA1D6"/>
<path d="M55.9189 32.0212C59.9556 30.3393 64.3768 29.9548 68.7018 29.8587C71.6813 29.8107 74.8529 29.7626 77.2077 27.9365C76.1024 27.7923 75.0452 27.504 74.036 27.0234C73.6035 27.6962 72.8346 28.0326 72.0657 28.2729C68.2693 29.3782 64.2326 28.8496 60.3401 29.5223C55.2942 30.4354 50.6808 33.511 47.9416 37.836C47.5572 38.4127 46.7402 39.6621 46.7402 39.9985C46.7402 40.2868 46.7402 40.4791 46.7402 40.7674C47.4611 39.0374 49.143 36.8268 50.008 35.9618C51.6419 34.2799 53.7083 32.9343 55.9189 32.0212Z" fill="#6EA1D6"/>
<path d="M46.6904 43.7462C46.6904 43.7462 46.6904 43.9384 46.6904 43.4098C46.6904 43.2656 26.3627 37.1145 3.63229 37.0664L1.22949 38.8445C1.22949 38.8445 22.9027 36.7781 46.6904 43.7462Z" fill="#6EA1D6"/>
<path d="M58.2704 31.7329C65.4308 29.8107 73.4561 32.9343 80.3762 30.1951C80.5684 30.1471 80.7125 30.051 80.9048 30.099C81.0489 30.1471 81.1931 30.1951 81.2892 30.2913C83.7401 32.0693 86.1429 33.8474 88.5937 35.6254C87.0559 35.4332 81.9139 35.6735 80.5203 35.7216C77.7811 35.8657 75.09 36.058 72.3508 36.3943C66.8724 37.0191 61.4421 38.0282 56.156 39.4219C53.1765 40.1907 50.2451 41.3441 47.2656 42.0649C48.8995 37.0671 53.2246 33.0785 58.2704 31.7329Z" fill="#6EA1D6"/>
<path d="M46.6895 43.8282C46.6895 43.8282 46.6895 44.0204 46.6895 43.4918C46.6895 43.3476 67.0171 37.1965 89.7476 37.1484L92.1504 38.9265C92.1984 38.9265 70.5252 36.8601 46.6895 43.8282Z" fill="#6EA1D6"/>
<path d="M13.3857 39.9375C13.3857 39.9375 31.9834 40.37 46.6885 44.8872V47.0017C46.6885 47.0017 38.8073 42.917 13.3857 39.9375Z" fill="#6EA1D6"/>
<path d="M80.0432 39.9375C80.0432 39.9375 61.4456 40.37 46.7405 44.8872V47.0017C46.6924 47.0017 54.5736 42.917 80.0432 39.9375Z" fill="#6EA1D6"/>
<defs>
<linearGradient id="paint0_linear_771_3597" x1="46.741" y1="26.2834" x2="46.741" y2="5.98348" gradientUnits="userSpaceOnUse">
<stop stop-color="#EE842C"/>
<stop offset="0.2492" stop-color="#F08D33"/>
<stop offset="0.6541" stop-color="#F5A548"/>
<stop offset="1" stop-color="#FBBF5D"/>
</linearGradient>
<clipPath id="clip0_771_3597">
<rect width="94" height="72" fill="white"/>
</clipPath>
</defs>
</svg>
