<svg width="78" height="40" viewBox="0 0 78 40" fill="none" xmlns="http://www.w3.org/2000/svg">
<path d="M38.7334 5.11133C41.0237 10.9598 41.0237 16.6038 38.7334 22.3705C36.443 16.5629 36.443 10.9189 38.7334 5.11133Z" fill="url(#paint0_linear_60_262)"/>
<path d="M57.0571 9.36523C53.7852 15.7045 48.9182 19.7126 42.1699 21.7984C45.4009 15.5409 50.2679 11.4511 57.0571 9.36523Z" fill="#EE842C"/>
<path d="M35.1742 21.8404C28.3851 19.7546 23.5181 15.6647 20.2871 9.40723C27.0354 11.4522 31.9023 15.5011 35.1742 21.8404Z" fill="#EE842C"/>
<path d="M29.1225 3.02637C32.3535 4.9486 35.1346 11.247 34.6029 15.2141C31.5764 13.6191 28.6726 7.23892 29.1225 3.02637Z" fill="#EE842C"/>
<path d="M42.6999 15.4182C42.6181 10.2649 44.4177 6.21599 48.2622 2.8623C48.344 7.97463 46.5853 12.0236 42.6999 15.4182Z" fill="#EE842C"/>
<path d="M27.8954 21.6764C23.4784 23.0669 19.5521 22.4126 15.9121 19.6724C19.7157 18.0364 24.6235 18.8544 27.8954 21.6764Z" fill="#EE842C"/>
<path d="M61.4717 19.59C57.7908 22.412 53.8237 23.0664 49.5293 21.6758C52.4331 18.9356 57.0956 18.0359 61.4717 19.59Z" fill="#EE842C"/>
<path d="M19.715 17.4631C20.8218 17.4631 21.719 16.5659 21.719 15.4591C21.719 14.3523 20.8218 13.4551 19.715 13.4551C18.6082 13.4551 17.7109 14.3523 17.7109 15.4591C17.7109 16.5659 18.6082 17.4631 19.715 17.4631Z" fill="#FBBF5D"/>
<path d="M57.3419 17.4631C58.4487 17.4631 59.346 16.5659 59.346 15.4591C59.346 14.3523 58.4487 13.4551 57.3419 13.4551C56.2351 13.4551 55.3379 14.3523 55.3379 15.4591C55.3379 16.5659 56.2351 17.4631 57.3419 17.4631Z" fill="#FBBF5D"/>
<path d="M25.4005 9.07935C26.5073 9.07935 27.4046 8.18212 27.4046 7.07532C27.4046 5.96852 26.5073 5.07129 25.4005 5.07129C24.2937 5.07129 23.3965 5.96852 23.3965 7.07532C23.3965 8.18212 24.2937 9.07935 25.4005 9.07935Z" fill="#FBBF5D"/>
<path d="M51.6993 9.07935C52.8061 9.07935 53.7034 8.18212 53.7034 7.07532C53.7034 5.96852 52.8061 5.07129 51.6993 5.07129C50.5925 5.07129 49.6953 5.96852 49.6953 7.07532C49.6953 8.18212 50.5925 9.07935 51.6993 9.07935Z" fill="#FBBF5D"/>
<path d="M38.6935 4.00806C39.8003 4.00806 40.6975 3.11083 40.6975 2.00403C40.6975 0.897234 39.8003 0 38.6935 0C37.5867 0 36.6895 0.897234 36.6895 2.00403C36.6895 3.11083 37.5867 4.00806 38.6935 4.00806Z" fill="#FBBF5D"/>
<path d="M28.8754 27.0081C22.7815 25.3722 15.9515 28.0306 10.062 25.6994C9.89844 25.6585 9.77575 25.5767 9.61215 25.6176C9.48946 25.6585 9.36676 25.6994 9.28497 25.7812C7.19913 27.2944 5.15419 28.8077 3.06836 30.3209C4.37712 30.1573 8.75328 30.3618 9.93934 30.4027C12.2706 30.5254 14.5609 30.689 16.8921 30.9753C21.5546 31.507 26.1761 32.3659 30.675 33.5519C33.2107 34.2063 35.7055 35.1879 38.2413 35.8013C36.8507 31.5479 33.1698 28.1533 28.8754 27.0081Z" fill="#6EA1D6"/>
<path d="M30.8759 27.2535C27.4405 25.822 23.6778 25.4948 19.9969 25.413C17.4612 25.3721 14.7618 25.3312 12.7578 23.7771C13.6985 23.6544 14.5983 23.409 15.4571 23C15.8252 23.5726 16.4796 23.8589 17.134 24.0634C20.365 25.004 23.8005 24.5541 27.1133 25.1267C31.4076 25.9038 35.3339 28.5213 37.6651 32.2022C37.9923 32.693 38.6876 33.7563 38.6876 34.0426C38.6876 34.288 38.6876 34.4516 38.6876 34.697C38.0741 33.2246 36.6427 31.3433 35.9065 30.6071C34.5159 29.1757 32.7573 28.0305 30.8759 27.2535Z" fill="#6EA1D6"/>
<path d="M46.5441 27.2535C49.9796 25.822 53.7422 25.4948 57.4231 25.413C59.9589 25.3721 62.6582 25.3312 64.6622 23.7771C63.7215 23.6544 62.8218 23.409 61.9629 23C61.5948 23.5726 60.9404 23.8589 60.286 24.0634C57.055 25.004 53.6196 24.5541 50.3068 25.1267C46.0124 25.9038 42.0861 28.5213 39.7549 32.2022C39.4277 32.693 38.7324 33.7563 38.7324 34.0426C38.7324 34.288 38.7324 34.4516 38.7324 34.697C39.3459 33.2246 40.7774 31.3433 41.5135 30.6071C42.9041 29.1757 44.6627 28.0305 46.5441 27.2535Z" fill="#6EA1D6"/>
<path d="M38.6902 37.2328C38.6902 37.2328 38.6902 37.3963 38.6902 36.9465C38.6902 36.8238 21.39 31.5888 2.04494 31.5479L0 33.0611C0 33.0611 18.4453 31.3025 38.6902 37.2328Z" fill="#6EA1D6"/>
<path d="M48.5455 27.0072C54.6394 25.3712 61.4695 28.0296 67.3589 25.6984C67.5225 25.6575 67.6452 25.5757 67.8088 25.6166C67.9315 25.6575 68.0542 25.6984 68.136 25.7802C70.2218 27.2935 72.2667 28.8067 74.3526 30.32C73.0438 30.1564 68.6677 30.3609 67.4816 30.4018C65.1504 30.5244 62.86 30.688 60.5288 30.9743C55.8664 31.506 51.2448 32.3649 46.7459 33.5509C44.2102 34.2053 41.7154 35.1869 39.1797 35.8004C40.5702 31.5469 44.2511 28.1523 48.5455 27.0072Z" fill="#6EA1D6"/>
<path d="M38.6895 37.3021C38.6895 37.3021 38.6895 37.4657 38.6895 37.0158C38.6895 36.8931 55.9896 31.6581 75.3347 31.6172L77.3796 33.1304C77.4205 33.1304 58.9752 31.3718 38.6895 37.3021Z" fill="#6EA1D6"/>
<path d="M10.3457 33.9883C10.3457 33.9883 26.1735 34.3564 38.6885 38.2008V40.0004C38.6885 40.0004 31.9811 36.524 10.3457 33.9883Z" fill="#6EA1D6"/>
<path d="M67.0754 33.9883C67.0754 33.9883 51.2476 34.3564 38.7326 38.2008V40.0004C38.6917 40.0004 45.3991 36.524 67.0754 33.9883Z" fill="#6EA1D6"/>
<defs>
<linearGradient id="paint0_linear_60_262" x1="38.7334" y1="22.3705" x2="38.7334" y2="5.09395" gradientUnits="userSpaceOnUse">
<stop stop-color="#EE842C"/>
<stop offset="0.2492" stop-color="#F08D33"/>
<stop offset="0.6541" stop-color="#F5A548"/>
<stop offset="1" stop-color="#FBBF5D"/>
</linearGradient>
</defs>
</svg>
