<svg width="58" height="62" viewBox="0 0 58 62" fill="none" xmlns="http://www.w3.org/2000/svg">
<g clip-path="url(#clip0_571_1388)">
<circle cx="31" cy="31" r="25" fill="#8ECEDC"/>
<path d="M11.0664 11.334V57.3036H33.7528L38.7334 52.2936V16.3423L33.7336 11.353L25.4319 11.3358C24.658 11.3581 24.5165 10.0768 25.2345 9.99414L38.9029 10.0716C39.6419 10.3834 40.1153 11.0636 40.1904 11.8541V56.7817C40.0943 57.8409 39.2837 58.6417 38.2076 58.7365H7.72616C6.72863 58.6486 6.00712 57.9821 5.76953 57.0401L5.81321 11.446C6.02634 10.8088 6.40194 10.3369 7.03086 10.0699L22.434 9.99931C23.1224 10.1302 22.8201 11.3323 22.3397 11.3323H11.0699L11.0664 11.334ZM9.6164 11.334H7.72965C7.50778 11.334 7.10598 11.88 7.19333 12.14V56.4959C7.10598 56.7559 7.50778 57.3019 7.72965 57.3019H9.6164V11.334ZM38.7352 14.0999V11.8593C38.7352 11.7474 38.3159 11.334 38.2024 11.334H35.9295L38.7352 14.0999ZM35.9295 57.3019H38.2024C38.3159 57.3019 38.7352 56.8885 38.7352 56.7766V54.536L35.9295 57.3019Z" fill="#2B6572"/>
<path d="M47.7317 40.5645C47.875 39.9031 49.0437 39.8188 49.1765 40.6661L49.1869 52.7768C48.6803 54.1752 48.3099 55.8974 47.709 57.2321C47.0294 58.7374 45.1916 58.7925 44.4928 57.301C43.8778 55.9887 43.6193 54.2975 42.9974 52.9576L42.9432 28.3109C42.5763 28.1162 42.3632 27.8217 42.3125 27.4067V21.0138C42.2566 20.7072 41.6015 20.7227 41.6382 20.0666C41.6644 19.6067 42.2322 19.4741 42.2986 19.2812C42.3772 19.0539 42.2846 18.6354 42.323 18.3512C42.4296 17.5711 43.1441 17.0182 43.8691 16.8064C44.0141 15.6284 43.5267 13.5342 44.1696 12.5405C45.0623 11.1592 47.1133 11.1575 48.0077 12.5405C48.6489 13.5325 48.1632 15.625 48.3082 16.8064C49.573 17.1405 49.9748 18.1342 49.9591 19.345C50.6789 19.4362 52.4468 19.0212 52.7211 19.9116L52.7595 34.3593C52.6058 35.322 51.313 35.0155 51.313 34.5556V20.8691H49.9591V27.2121C49.9591 27.7959 49.1904 28.3384 49.1782 28.4486L49.1642 37.6815C48.9825 38.4599 47.7334 38.1137 47.7334 37.6057V28.4986H44.4439V52.0551H47.7334V40.5627L47.7317 40.5645ZM46.8617 16.7685V13.4791C46.8617 12.8143 45.3139 12.8143 45.3139 13.4791V16.7685H46.8617ZM48.4095 19.3432C48.3851 19.0298 48.5405 18.427 48.1475 18.3134C46.9193 18.3702 45.4973 18.1721 44.2919 18.2892C44.0962 18.3082 43.9268 18.2858 43.8132 18.4856L43.766 19.345H48.4095V19.3432ZM48.4095 20.8691H43.766V26.9727H48.4095V20.8691ZM47.4417 53.4863H44.7321L46.0389 56.9187C46.1839 56.9497 46.2939 56.7637 46.3533 56.6586C46.818 55.8337 46.97 54.3698 47.4399 53.4863H47.4417Z" fill="#2B6572"/>
<path d="M15.6894 17.7517L33.2728 17.7207C33.9192 17.7224 34.5918 17.967 34.763 18.6369L34.7228 24.5941C34.5359 25.1486 34.1219 25.3088 33.5628 25.3588L15.3208 25.3105C14.9731 25.1676 14.6185 24.9385 14.5556 24.539C14.7321 22.71 14.3023 20.3953 14.5451 18.6266C14.622 18.0617 15.1583 17.7965 15.6894 17.7517ZM33.3183 19.25H16.0021V23.9224H33.3183V19.25Z" fill="#2B6572"/>
<path d="M16.9396 43.2079L32.2066 43.1855C33.3351 43.3182 33.1202 44.7304 32.0109 44.7132C27.2835 44.4204 22.0705 45.1024 17.3991 44.7166C16.2478 44.6219 15.8408 43.7625 16.9396 43.2079Z" fill="#2B6572"/>
<path d="M16.8442 46.9277L32.5426 46.957C33.0894 47.3204 33.0894 47.9232 32.5426 48.2883L17.0154 48.34C16.1559 48.2711 16.0825 47.2136 16.8442 46.9277Z" fill="#2B6572"/>
<path d="M16.7468 39.5829L32.3037 39.5605C33.2419 39.6518 33.1283 40.94 32.2076 40.9952H17.1119C16.2891 40.9004 16.0061 40.0187 16.7468 39.5829Z" fill="#2B6572"/>
<path d="M0.234493 9.28984C1.41022 9.5809 2.56497 9.95462 3.68654 10.4093C3.90491 10.4971 4.16696 10.3128 4.22461 10.1079C4.29275 9.86162 4.13901 9.66701 3.91889 9.57746C2.79732 9.12279 1.64256 8.74907 0.466842 8.45801C-0.0782183 8.32368 -0.310568 9.15379 0.234493 9.28812V9.28984Z" fill="#2B6572"/>
<path d="M6.70053 7.52316C6.65161 6.29005 6.51185 5.06211 6.28649 3.84794C6.24456 3.61889 5.9633 3.48972 5.74842 3.54655C5.50384 3.612 5.40077 3.84622 5.4427 4.077C5.65583 5.21539 5.78161 6.36583 5.82703 7.52316C5.83577 7.75566 6.02095 7.95372 6.26378 7.95372C6.49264 7.95372 6.70926 7.75739 6.70053 7.52316Z" fill="#2B6572"/>
<path d="M0.825534 3.47974C1.87023 4.97119 2.84156 6.51085 3.85306 8.02469C4.16053 8.48452 4.91873 8.05396 4.60776 7.59069C3.59626 6.07857 2.62493 4.53891 1.58023 3.04574C1.44571 2.85457 1.19764 2.76846 0.982763 2.89074C0.790595 3.00096 0.691016 3.28685 0.825534 3.47974Z" fill="#2B6572"/>
</g>
<defs>
<clipPath id="clip0_571_1388">
<rect width="58" height="62" fill="white"/>
</clipPath>
</defs>
</svg>
