<svg width="70" height="63" viewBox="0 0 70 63" fill="none" xmlns="http://www.w3.org/2000/svg">
<circle cx="27.5" cy="35.5" r="27.5" fill="#F89781"/>
<path d="M11.1992 41.702C11.4264 41.4641 11.6706 41.2413 11.9256 41.0356C15.1742 38.732 18.4271 36.437 21.6842 34.1441C21.8514 34.0306 22.0056 33.9063 22.2135 33.752C21.8985 33.5441 21.6264 33.3556 21.3456 33.1798C20.3042 32.5134 19.2735 31.847 18.2149 31.2106C17.1799 30.5956 16.5735 29.7106 16.5478 28.5256C16.5114 26.5241 16.4985 24.5248 16.6099 22.5256C16.6442 21.8998 16.5414 21.5827 16.0121 21.317C15.5814 21.1006 15.1956 20.7941 14.7756 20.5477C13.7899 19.9734 13.3549 19.0927 13.3421 17.9891C13.3271 16.5663 13.3271 15.1434 13.3421 13.7227C13.3721 11.9998 14.4992 10.6306 16.1835 10.3477C20.6664 9.59556 25.1342 8.86913 29.6106 8.13413C32.4821 7.66056 35.3556 7.18485 38.2292 6.70913C38.7414 6.59985 39.2771 6.70056 39.7164 6.98556C45.0156 10.3584 50.3171 13.7184 55.6228 17.0677C56.4049 17.5691 56.5249 18.0041 56.1735 18.8591C55.7707 19.8406 55.6892 19.5791 56.5614 20.1341C60.3757 22.5598 64.1942 24.9791 68.0171 27.3963C68.6621 27.8056 68.8614 28.2491 68.5699 28.8963C67.2371 31.922 67.5585 34.9456 68.5335 37.9734C68.8678 39.0127 68.6642 39.3941 67.6099 39.5763C66.2299 39.8141 64.8478 40.0306 63.3221 40.2834C63.3221 40.9799 63.3649 41.7041 63.3135 42.4241C63.2299 43.5748 62.6535 44.4234 61.6999 45.1006C55.4578 49.4806 49.1985 53.8477 43.0335 58.3177C41.6728 59.3013 40.4106 59.522 38.8142 59.2156C32.8935 58.0841 26.9535 57.0491 21.0221 55.9841C18.0842 55.4527 15.1464 54.9148 12.2021 54.4091C11.7735 54.3577 11.3985 54.0941 11.2035 53.7084V53.1491C11.2978 52.8684 11.4092 52.5941 11.4864 52.3156C12.0049 50.3591 12.6521 48.4027 12.2106 46.3413C11.9342 45.0448 11.5442 43.772 11.2099 42.4884L11.1992 41.702ZM13.2864 52.6777C13.5542 52.7398 13.7321 52.7891 13.9142 52.8213L27.4142 55.2341C31.7128 56.0034 36.0114 56.7727 40.3078 57.5441C40.9742 57.6598 41.1649 57.5334 41.1714 56.8606C41.1906 54.392 41.1992 51.9213 41.1714 49.4527C41.1585 48.5934 40.7321 48.1456 39.9649 48.0041C37.0464 47.4663 34.1278 46.937 31.2049 46.4141C26.4285 45.5613 21.6499 44.7148 16.8735 43.877C15.7635 43.682 14.6492 43.4934 13.4042 43.277C14.5614 46.4741 14.3792 49.5534 13.2864 52.6777ZM52.7856 17.5756C52.6999 17.4727 52.6806 17.4384 52.6507 17.4213C48.0821 14.5177 43.5092 11.6184 38.9299 8.72556C38.7585 8.62056 38.5571 8.57771 38.3578 8.60342C35.9985 8.97842 33.6456 9.37485 31.2885 9.76913L20.6299 11.5006C19.9635 11.6077 19.3121 11.7298 18.5321 11.867C23.2656 14.867 27.8664 17.7834 32.4799 20.6998C32.6385 20.7941 32.8228 20.8327 33.0049 20.8091C34.4814 20.5841 35.9535 20.3377 37.4256 20.0977L48.0307 18.3641L52.7856 17.5756ZM66.3157 29.5884C62.5014 30.1991 58.7428 30.797 54.9821 31.4013C49.9935 32.207 45.0049 33.017 40.0142 33.8334C39.0906 33.9813 38.7135 34.3798 38.7071 35.3206C38.6985 36.8741 38.7071 38.4277 38.7071 39.9877C38.7071 40.5298 38.6899 41.0741 38.7156 41.6141C38.7349 42.0298 38.8828 42.347 39.4056 42.2613C42.7035 41.7277 46.0035 41.1941 49.3035 40.6648L60.8578 38.8006C62.7307 38.4899 64.6057 38.1791 66.4849 37.8684C65.2335 31.8513 65.9107 31.8041 66.3221 29.5884H66.3157ZM53.7907 19.3734C53.6942 19.3734 53.5978 19.3777 53.5035 19.3906C51.5514 19.7098 49.5992 20.0356 47.6449 20.3506C42.6585 21.152 37.6656 21.9491 32.6664 22.7377C32.1306 22.8234 31.8606 23.1041 31.8585 23.6291C31.8499 25.3691 31.8585 27.107 31.8499 28.847C31.8499 29.2177 31.9806 29.3291 32.3621 29.2648C34.1299 28.9691 35.8999 28.7056 37.6699 28.4206C41.9814 27.7241 46.2907 27.0277 50.5999 26.3291L53.9685 25.7784C53.7778 24.6727 53.4799 23.6334 53.4521 22.5856C53.4242 21.5398 53.6664 20.4556 53.7907 19.3734ZM43.0699 55.8941C43.2478 55.7891 43.3164 55.757 43.3764 55.7141C49.1814 51.6256 54.9821 47.5306 60.7785 43.427C61.0935 43.1741 61.3142 42.8206 61.4021 42.4263C61.5285 41.8391 61.4921 41.2156 61.5285 40.5706C57.6285 41.1984 53.8249 41.8691 49.9999 42.3941C48.5578 42.5677 47.1949 43.1549 46.0785 44.0827C45.7035 44.3913 45.2878 44.6463 44.8892 44.9291L42.0242 46.9541C42.6906 47.6313 42.9349 48.4541 43.0378 49.3091C43.0742 49.7763 43.0849 50.2434 43.0699 50.7106C43.0721 52.4077 43.0699 54.1027 43.0699 55.8941ZM18.4014 22.8341C18.4014 24.7841 18.3885 26.6141 18.4099 28.442C18.4099 28.9413 18.7014 29.2927 19.1364 29.5691C24.8728 33.1884 30.6049 36.8163 36.3328 40.4506C36.4656 40.5341 36.6135 40.5984 36.8171 40.7056V35.642C36.8171 34.5941 36.9049 33.5806 37.7535 32.7834C37.0035 32.3056 36.2685 31.8941 35.5871 31.3948C34.9078 30.8956 34.2649 30.7413 33.4614 30.9856C32.2228 31.3606 31.1278 31.0841 30.0349 30.3406C27.6092 28.6927 25.1064 27.1606 22.6356 25.5748C21.2599 24.6877 19.8842 23.7941 18.4014 22.8341ZM14.5764 41.4448C14.6449 41.4941 14.7221 41.5348 14.8014 41.5691C17.1114 41.9891 19.4256 42.4091 21.7399 42.827C27.2621 43.8256 32.7928 44.7941 38.3064 45.8506C39.4528 46.0713 40.3742 46.0177 41.2721 45.2098C41.9556 44.597 42.7721 44.1298 43.6592 43.5063C43.5156 43.4977 43.3721 43.4977 43.2285 43.5063C42.1571 43.6734 41.0835 43.8148 40.0249 44.0334C39.1464 44.2327 38.2228 44.0484 37.4899 43.5213C34.9914 41.8541 32.4306 40.2706 29.8999 38.6463C27.9199 37.3798 25.9399 36.1091 23.9599 34.8341L14.5764 41.4448ZM15.8835 12.407C15.4656 12.7498 15.2278 13.262 15.2299 13.802C15.2385 15.1477 15.2471 16.4956 15.2299 17.8413C15.1956 18.3341 15.4506 18.7991 15.8856 19.0327C20.4049 21.8763 24.9199 24.7284 29.4285 27.5913C29.5785 27.6877 29.7349 27.7713 29.9642 27.9041C29.9642 26.8391 29.9749 25.8513 29.9642 24.8656C29.9514 23.7813 29.9149 22.6991 30.6799 21.7756L15.8835 12.407ZM64.9999 27.8506L65.0278 27.7156L55.3528 21.5913C55.3292 21.7584 55.3099 21.8548 55.3057 21.9427C55.2478 23.3591 55.6164 24.6748 56.2271 25.9434C56.5849 26.687 56.2807 27.2913 55.4835 27.4434C55.1707 27.5034 54.8535 27.5441 54.5428 27.5934L40.2306 29.912L37.4385 30.3641C38.3299 30.9298 39.0799 31.412 39.8406 31.8748C39.9606 31.9241 40.0914 31.9348 40.2156 31.9049C42.7956 31.4891 45.3735 31.0691 47.9492 30.6448L59.9385 28.6906L64.9999 27.8506Z" fill="#AD4027"/>
<path d="M51.7563 8.88515L49.5352 5.40039" stroke="#AD4027" stroke-linecap="round"/>
<path d="M56.0358 10.1943L58.707 6.23047" stroke="#AD4027" stroke-linecap="round"/>
<path d="M54.162 8.04707L55.1191 0.951172" stroke="#AD4027" stroke-linecap="round"/>
</svg>
