<svg width="76" height="62" viewBox="0 0 76 62" fill="none" xmlns="http://www.w3.org/2000/svg">
<circle cx="30.5" cy="29.5" r="29.5" fill="#B9EAC0"/>
<path d="M0.256767 58.0624C0.421434 57.8232 0.861297 57.3763 1.14777 57.3763H4.09824V26.9595C4.22005 26.1424 4.62607 25.6437 5.50354 25.831C5.86446 25.9077 6.29304 26.5058 6.29304 26.8263V57.3786H9.31118V42.8912C9.31118 42.7694 9.52772 41.9749 9.59765 41.8056C10.0172 40.7878 11.1135 40.4244 12.1195 40.3454C14.3121 40.1739 18.8754 40.122 21.007 40.3883C21.9928 40.5124 23.4477 41.3768 23.4477 42.4782V57.3763H26.6034V11.7206C26.6034 10.8471 25.4011 9.59002 24.4763 9.59227C19.3355 9.97144 13.4684 9.08898 8.41341 9.5855C7.33067 9.69158 6.41936 10.4635 6.29304 11.5829C5.90957 14.9661 6.73065 19.2227 6.28176 22.5562C6.05619 24.224 4.23809 24.1315 4.09824 22.5674C4.34636 19.094 3.75763 15.1534 4.11403 11.7364C4.33057 9.65998 5.64114 8.13655 7.62842 7.56328L25.0132 7.54297C26.5267 7.65807 28.6606 9.82925 28.6606 11.3076V18.5162H45.1972C45.7409 18.5162 46.1198 19.4687 45.8807 20.0239C45.8514 20.0893 45.3732 20.5746 45.3348 20.5746H28.6606V23.5944H63.3805C63.5091 22.1093 62.5797 20.8251 61.0797 20.6084L48.5605 20.5023C47.7123 19.8907 47.8567 18.7555 48.9101 18.5207C52.8554 18.7622 57.2292 18.1732 61.1203 18.5072C63.7978 18.7374 65.6903 21.0463 65.4535 23.714C66.3445 23.8968 67.2896 24.7161 67.6889 25.5263C67.7498 25.6527 68.0453 26.3591 68.0453 26.4065V57.3695C68.6994 57.4102 69.8544 57.1822 70.3078 57.7826C70.8221 58.4641 70.398 59.5362 69.4912 59.4346C46.5394 59.3353 23.5447 59.6062 0.619936 59.2992L0.25 58.8794V58.0556L0.256767 58.0624ZM65.9926 30.4622V26.824C65.9926 26.5194 65.1896 25.6572 64.8264 25.6572H28.6651V30.4622H65.9926ZM35.5248 32.5228H28.6629V39.5261H35.5248V32.5228ZM46.2303 32.5228H37.7218V39.5261H46.2303V32.5228ZM56.9337 32.5228H48.4251V39.5261H56.9337V32.5228ZM65.9926 32.5228H59.1307V39.5261H65.9926V32.5228ZM35.5248 41.5845H28.6629V48.3124H35.5248V41.5845ZM46.2303 41.5845H37.7218V48.3124H46.2303V41.5845ZM56.9337 41.5845H48.4251V48.3124H56.9337V41.5845ZM65.9926 41.5845H59.1307V48.3124H65.9926V41.5845ZM21.2529 42.5459H11.5082V57.3763H21.2529V42.5459ZM35.5248 50.373H28.6629V57.3763H35.5248V50.373ZM46.2303 50.373H37.7218V57.3763H46.2303V50.373ZM56.9337 50.373H48.4251V57.3763H56.9337V50.373ZM65.9926 50.373H59.1307V57.3763H65.9926V50.373Z" fill="#527F58"/>
<path d="M22.7162 12.9344C23.5779 13.7401 23.5892 15.812 23.4381 16.9247C23.3163 17.8207 22.6373 18.6693 21.8072 19.001L11.176 19.0575C9.42561 18.5632 9.24064 16.8502 9.30832 15.2839C9.38727 13.4625 10.064 12.3611 11.9858 12.1964C14.2461 12.0023 18.5184 12.0023 20.7786 12.1964C21.4124 12.2505 22.2471 12.4965 22.7162 12.9366V12.9344ZM21.2545 14.3969H11.5099V17.0059H21.2545V14.3969Z" fill="#527F58"/>
<path d="M22.7162 22.2723C23.5824 23.0825 23.5847 25.1431 23.4381 26.2625C23.314 27.2172 22.6711 27.9643 21.8072 28.3389L11.176 28.3954C9.42561 27.9011 9.24064 26.1881 9.30832 24.6217C9.39403 22.6717 10.1181 21.6922 12.1234 21.5342C14.404 21.3559 18.5116 21.3401 20.7786 21.5342C21.4124 21.5884 22.2471 21.8344 22.7162 22.2745V22.2723ZM21.2545 23.7348H11.5099V26.3438H21.2545V23.7348Z" fill="#527F58"/>
<path d="M11.0639 31.1813C14.346 31.3641 18.1063 30.8315 21.3319 31.1429C23.5403 31.3551 23.6215 33.8919 23.45 35.6117C23.2989 37.1171 22.2184 37.8799 20.7725 38.0131C18.5439 38.2207 14.3753 38.1959 12.1241 38.0199C9.62479 37.8235 9.17365 36.2143 9.31125 33.9596C9.38794 32.6867 9.78044 31.635 11.0639 31.1813ZM21.2552 33.2103H11.5106V35.8193H21.2552V33.2103Z" fill="#527F58"/>
</svg>
