<svg width="58" height="60" viewBox="0 0 58 60" fill="none" xmlns="http://www.w3.org/2000/svg">
<circle cx="31" cy="34" r="23" fill="#D2B6F4"/>
<path d="M2.58491 57.2092C2.16491 56.9492 1.92324 56.7642 1.85991 56.2326C1.82657 50.2309 1.06824 44.6476 6.24824 40.5042C9.29824 38.0642 12.4932 37.8309 16.3016 38.0259V35.2926C14.4899 33.7842 13.2916 31.7126 12.5749 29.4792C8.74824 29.6626 6.69824 25.5026 9.07157 22.5176C7.67157 21.1959 7.68991 18.8992 9.25491 17.7259C9.44324 17.5842 10.0416 17.3242 10.0866 17.2692C10.1766 17.1609 10.4016 15.5176 10.4966 15.1526C11.5032 11.3242 14.6449 8.21258 18.4466 7.16758C18.5999 6.05758 19.4699 4.93091 20.5316 4.56091C21.3582 4.27258 24.7232 4.32258 25.7416 4.39924C26.8766 4.48424 27.8382 5.25758 28.3199 6.25591C28.4182 6.46091 28.5966 7.16924 28.6382 7.19924C28.8066 7.32091 29.7482 7.53758 30.0882 7.68591C33.9399 9.36758 36.5232 13.0342 36.9282 17.2192C39.1482 18.1426 39.7132 20.8176 37.9699 22.5192C40.3432 25.5042 38.2932 29.6626 34.4666 29.4809C33.8149 31.7192 32.5516 33.8159 30.7399 35.2942V38.0276C34.5466 37.8326 37.7432 38.0659 40.7932 40.5059C45.9732 44.6492 45.2149 50.2326 45.1816 56.2342C45.1182 56.7659 44.8782 56.9526 44.4566 57.2109H2.58491V57.2092ZM28.6799 9.35424V14.2526C28.6799 14.2826 28.4266 14.7059 28.3649 14.7626C27.8316 15.2592 26.8532 15.0242 26.6666 14.3059L26.6082 7.76258C26.4232 7.06258 26.2216 6.53258 25.4366 6.45924C24.8366 6.40424 21.5632 6.38758 21.1782 6.54258C20.7666 6.70758 20.4766 7.43758 20.4299 7.85591C20.2032 9.87591 20.6399 12.2476 20.3816 14.3042C20.1949 15.0226 19.2149 15.2576 18.6832 14.7609C18.6216 14.7042 18.3682 14.2809 18.3682 14.2509V9.35258C15.1032 10.6009 12.6332 13.5626 12.2832 17.0876H34.7666C34.4166 13.5626 31.9449 10.6009 28.6816 9.35258L28.6799 9.35424ZM11.0149 19.1759C9.93491 19.4326 9.80657 20.7276 10.8532 21.1459H36.1916C37.1516 20.7659 37.1532 19.5992 36.1916 19.2192L11.0149 19.1759ZM12.1782 23.2776C9.45491 23.5009 9.45657 27.1809 12.1782 27.4026V23.2776ZM32.8049 23.2776H14.2399C14.2599 25.0259 14.1166 26.7159 14.4966 28.4359C16.0099 35.2842 24.0416 38.4459 29.5049 33.6442C32.6149 30.9109 33.0382 27.2259 32.8032 23.2776H32.8049ZM34.8682 27.4026C37.5916 27.1792 37.5899 23.4992 34.8682 23.2776V27.4026ZM28.6799 36.7876C25.3682 38.4192 21.6799 38.4192 18.3666 36.7876V38.5926L23.5616 43.9992L28.6816 38.5926V36.7876H28.6799ZM22.4916 55.1459V46.0176L16.8699 40.0876H14.2399V46.8426C14.2399 47.2326 13.5516 47.6409 13.1599 47.6242C12.8016 47.6092 12.1782 47.1876 12.1782 46.8426V40.1909L10.1149 40.6042V55.1459H12.1782V52.5159C12.1782 52.1259 12.8666 51.7176 13.2582 51.7342C13.6166 51.7492 14.2399 52.1709 14.2399 52.5159V55.1459H22.4916ZM32.8049 40.0892H30.1749L24.5532 46.0192V55.1476H32.8049V52.5176C32.8049 52.1276 33.4932 51.7192 33.8849 51.7359C34.2432 51.7509 34.8666 52.1726 34.8666 52.5176V55.1476H36.9299V40.6059L34.8666 40.1926V46.8442C34.8666 47.2342 34.1782 47.6426 33.7866 47.6259C33.4282 47.6109 32.8049 47.1892 32.8049 46.8442V40.0892ZM8.05157 41.8426C7.72657 41.9776 7.32991 42.3226 7.06824 42.5626C5.79157 43.7326 4.75991 45.4576 4.31157 47.1276C3.61991 49.7026 4.04324 52.4992 3.92657 55.1476H8.05157V41.8426ZM43.1182 55.1459C43.0016 52.4976 43.4249 49.7009 42.7332 47.1259C42.2849 45.4542 41.2516 43.7309 39.9766 42.5609C39.7166 42.3226 39.3182 41.9759 38.9932 41.8409V55.1459H43.1182Z" fill="#8363A9"/>
<path d="M12.9757 48.6717C14.4474 48.3901 14.684 50.5551 13.3524 50.7101C11.994 50.8684 11.7607 48.9051 12.9757 48.6717Z" fill="#8363A9"/>
<path d="M33.6027 48.6717C35.0743 48.3901 35.311 50.5551 33.9793 50.7101C32.621 50.8684 32.3877 48.9051 33.6027 48.6717Z" fill="#8363A9"/>
<path d="M0.5933 9.44571C1.84497 9.76571 3.06663 10.1657 4.2633 10.6524C5.0083 10.9557 5.33163 9.74571 4.59497 9.44738C3.3983 8.96071 2.17663 8.56071 0.924966 8.24071C0.144966 8.04238 -0.1867 9.24738 0.5933 9.44571Z" fill="#8363A9"/>
<path d="M7.67299 7.3855C7.61466 6.03883 7.46465 4.7055 7.22632 3.37883C7.08465 2.58883 5.87965 2.92383 6.02132 3.7105C6.23965 4.92717 6.37132 6.14883 6.42299 7.38383C6.45799 8.1855 7.70799 8.18883 7.67299 7.38383V7.3855Z" fill="#8363A9"/>
<path d="M1.12763 3.10686C2.23597 4.71686 3.27263 6.3752 4.34597 8.00853C4.78597 8.67853 5.8693 8.05186 5.42597 7.37686C4.35097 5.74353 3.3143 4.08686 2.20763 2.4752C1.7543 1.81686 0.670966 2.4402 1.12763 3.10686Z" fill="#8363A9"/>
</svg>
