<svg width="180" height="140" viewBox="0 0 180 140" fill="none" xmlns="http://www.w3.org/2000/svg">
<path d="M92.5 0.5C122.171 0.5 143.919 7.89735 158.24 19.9453C172.553 31.9861 179.5 48.7151 179.5 67.5C179.5 86.2996 172.719 104.197 162.93 117.389C153.127 130.599 140.382 139 128.5 139C95.8725 139 63.8074 136.393 39.915 129.079C15.9843 121.754 0.5 109.796 0.5 91.2412C0.500063 81.8976 3.8861 71.5513 9.58789 61.2676C15.287 50.9887 23.2831 40.8034 32.46 31.791C41.6368 22.7787 51.9831 14.9498 62.375 9.37695C72.772 3.80141 83.1841 0.5 92.5 0.5Z" fill="#D4ECF2" stroke="#4096AA"/>
</svg>
