<svg width="180" height="139" viewBox="0 0 180 139" fill="none" xmlns="http://www.w3.org/2000/svg">
<path d="M122 137.709C102.502 137.709 72.0512 135.228 46.4922 127.895C33.7104 124.227 22.1895 119.356 13.874 113.004C5.56645 106.657 0.499997 98.868 0.499996 89.3389C0.500015 69.9326 4.98803 46.7671 17.9043 28.9668C30.7977 11.1982 52.1297 -1.28263 85.9707 0.708016L85.9853 0.708993L86 0.708993C105.422 0.708991 128.829 7.81677 147.374 19.7773C165.931 31.7458 179.5 48.4886 179.5 67.708C179.5 87.0853 173.954 104.596 164 117.251C154.209 129.698 140.142 137.463 122.827 137.703L122 137.709Z" fill="#F4FCF5" stroke="#B9EAC0"/>
</svg>
