<svg width="580" height="307" viewBox="0 0 580 307" fill="none" xmlns="http://www.w3.org/2000/svg">
<circle cx="184.5" cy="153.301" r="150.5" stroke="url(#paint0_linear_786_3510)" stroke-width="5"/>
<circle cx="395.5" cy="153.301" r="150.5" stroke="url(#paint1_linear_786_3510)" stroke-width="5"/>
<path d="M76.5 21.3008C94.7325 21.3008 109.5 35.8586 109.5 53.8008C109.5 71.743 94.7325 86.3008 76.5 86.3008C58.2675 86.3008 43.5 71.743 43.5 53.8008C43.5 35.8586 58.2675 21.3008 76.5 21.3008Z" fill="#FFF9EF" stroke="#FCD799"/>
<path d="M55 49.6191C55.1598 48.9862 56.0785 48.1 56.73 48.1H58.6298V39.4473C58.6298 39.295 59.0854 38.5236 59.2203 38.3738C60.0066 37.4988 61.1013 37.6149 62.1761 37.6336C61.9988 35.9085 62.4719 34.2172 64.4229 34.0137L83.8303 34C85.1959 34.1073 86.1271 34.9349 86.2356 36.3217L86.2444 55.9813L97.5184 60.4911C99.6104 62.341 96.8056 63.0725 95.3877 63.6279C95.1755 64.4056 95.5949 66.5051 95.2191 67.0893C94.8434 67.6734 93.9984 67.3626 93.9984 66.9657V64.2221L92.322 64.825C92.2084 64.9997 92.3632 68.3912 92.3095 68.9903C92.1597 70.6455 90.9202 70.8527 89.5609 71.2221C86.0384 72.1808 82.4735 72.1845 78.956 71.2047C78.0048 70.94 76.8215 70.7154 76.4009 69.708L76.2311 69.6244H61.0764C61.0639 69.8004 61.1051 69.9964 61.0714 70.1686C61.0202 70.4308 59.1204 73.258 58.8333 73.5863C58.379 74.1043 57.7561 74.153 57.2793 73.635C56.4554 72.7412 55.7976 71.2633 55 70.301V49.6203V49.6191ZM63.609 35.9872C63.5067 36.3941 63.6839 37.178 63.609 37.6336H80.7023C81.3276 37.6336 82.6021 38.8444 82.6021 39.4485V55.8665C83.4209 55.7267 84.0001 55.1437 84.8813 55.4445L84.8851 36.5763C84.8439 36.097 84.7515 35.7038 84.2872 35.4854L64.4928 35.4355C64.2057 35.3855 63.6727 35.7438 63.6103 35.9884L63.609 35.9872ZM61.0776 49.7451V68.2726H76.271V64.8112L70.9249 62.6868C70.0724 62.1513 70.1909 60.9168 71.0634 60.4899L81.2103 56.4569L81.1941 39.6732C81.0842 39.3399 80.8945 39.1489 80.5612 39.0403L61.0327 38.9804C60.5009 38.9904 60.0441 39.3212 59.9779 39.8679L60.0229 48.3534C60.4922 48.6617 60.9965 49.1672 61.0776 49.7464V49.7451ZM59.727 51.4764V49.9998C59.727 49.6328 59.048 49.473 58.7597 49.4481C58.364 49.4144 56.3506 49.3407 56.3506 49.9149V51.4764H59.727ZM57.3629 52.827H56.3506V69.371H57.3629V52.827ZM59.727 52.827H58.7147V69.371H59.727V52.827ZM96.6134 61.6058L84.2497 56.7864L71.9659 61.647L84.3259 66.4964L96.6134 61.607V61.6058ZM90.8741 65.4029L84.251 67.9393L77.6216 65.4029V69.0752C77.6216 69.4909 78.8786 69.7592 79.2069 69.8528C82.5272 70.804 86.0484 70.8002 89.3724 69.8528C89.6208 69.7817 90.8741 69.4359 90.8741 69.2437V65.4029ZM59.0517 70.8052H57.0259C57.1457 71.0237 57.9283 72.2781 58.0806 72.2395L59.0517 70.8052Z" fill="#D5A24F"/>
<path d="M63.7563 52.934L77.3258 52.9141C78.3593 52.9315 78.4667 54.2247 77.4119 54.3508L63.82 54.3483C62.8301 54.2884 62.7789 53.0963 63.7563 52.934Z" fill="#D5A24F"/>
<path d="M63.5855 47.8676L77.497 47.8477C78.2272 47.9163 78.3807 48.7576 77.7891 49.1558L63.6504 49.202C62.8827 49.1521 62.8653 48.0286 63.5855 47.8676Z" fill="#D5A24F"/>
<path d="M63.5011 42.8008L77.7896 42.827C78.3712 43.2152 78.2414 44.0615 77.4975 44.1351H63.7345C62.9456 44.0166 62.8158 43.189 63.5011 42.8008Z" fill="#D5A24F"/>
<path d="M63.585 63.1453C64.807 63.2451 66.4422 62.9468 67.6143 63.1328C68.3882 63.2551 68.4044 64.3623 67.6979 64.4734C67.055 64.5745 64.2153 64.5732 63.5725 64.4734C62.8785 64.3648 62.8947 63.3163 63.585 63.1465V63.1453Z" fill="#D5A24F"/>
<path d="M63.5007 58.0787L67.7023 58.0625C68.4162 58.3121 68.3688 59.287 67.6149 59.4068C67.007 59.503 64.2659 59.503 63.6568 59.4068C62.9328 59.292 62.8554 58.3933 63.5007 58.0787Z" fill="#D5A24F"/>
<path d="M503.5 286.301C485.275 286.301 470.5 271.526 470.5 253.301C470.5 235.075 485.275 220.301 503.5 220.301C521.725 220.301 536.5 235.075 536.5 253.301C536.5 271.526 521.725 286.301 503.5 286.301Z" fill="#F8F3FD" stroke="#D2B6F4"/>
<path d="M33.5 121.301C51.7325 121.301 66.5 135.859 66.5 153.801C66.5 171.743 51.7325 186.301 33.5 186.301C15.2675 186.301 0.5 171.743 0.5 153.801C0.5 135.859 15.2675 121.301 33.5 121.301Z" fill="#FFF9EF" stroke="#FCD799"/>
<path d="M14.6127 135.938L31.855 135.914C32.8199 135.961 33.6238 136.764 33.6704 137.729V153.383C33.6704 154.381 32.8474 155.231 31.855 155.278H14.9109C13.9126 155.278 13.0633 154.455 13.0156 153.463L13.0192 137.652C13.1039 136.791 13.7623 136.085 14.6115 135.938H14.6127ZM32.1926 137.392C32.0828 137.282 31.7763 137.205 31.6141 137.203H15.0719C14.5304 137.252 14.3551 137.429 14.305 137.97V153.223C14.3539 153.765 14.5304 153.94 15.0719 153.99H31.6153C32.1568 153.941 32.3321 153.765 32.3822 153.223V137.969C32.381 137.807 32.3035 137.5 32.1937 137.391L32.1926 137.392Z" fill="#D5A24F"/>
<path d="M36.7101 134L52.6833 134.043C52.9207 134.167 53.0424 134.392 53.0304 134.664L52.966 155.578C52.842 155.815 52.6166 155.937 52.3446 155.925L36.592 155.861C36.3547 155.737 36.233 155.511 36.245 155.239V134.664C36.2306 134.347 36.4048 134.087 36.7101 134ZM51.7351 135.273H37.5391V154.631H51.7351V135.273Z" fill="#D5A24F"/>
<path d="M33.9716 157.879L51.2139 157.855C52.2898 157.947 52.9506 158.692 53.0293 159.751C53.3263 163.76 52.7967 168.131 53.0293 172.178C52.9816 173.169 52.1323 173.993 51.134 173.993H34.1899C33.1832 173.919 32.4604 173.179 32.3745 172.178C32.0298 168.163 32.637 163.659 32.3781 159.593C32.4628 158.732 33.1212 158.026 33.9704 157.879H33.9716ZM51.5515 159.332C51.4417 159.222 51.1352 159.145 50.973 159.144H34.4296C33.8846 159.193 33.7116 159.371 33.6627 159.911C33.9335 163.783 33.3168 168.118 33.6627 171.937C33.6949 172.291 33.7796 172.567 34.1482 172.66L50.9718 172.704C51.5169 172.655 51.6898 172.476 51.7387 171.937C51.4668 168.064 52.0846 163.729 51.7387 159.911C51.7232 159.74 51.6696 159.451 51.5503 159.332H51.5515Z" fill="#D5A24F"/>
<path d="M21.0703 157.237C26.0465 156.847 32.696 160.303 30.7876 166.148C29.3074 170.68 23.0682 172.254 18.8864 171.018L16.0453 173.829C15.5921 174.179 15.0219 173.97 14.9551 173.387C14.787 171.941 15.0983 170.201 14.9408 168.723C10.1329 163.428 15.0494 157.708 21.0715 157.237H21.0703ZM16.2469 171.731C16.8301 171.388 18.0324 169.7 18.5823 169.585C18.884 169.522 20.1734 169.963 20.6517 170.028C23.8614 170.461 28.4832 169.144 29.5567 165.726C30.8926 161.474 26.2993 158.722 22.6567 158.505C16.9983 158.167 11.198 163.087 16.2457 168.223V171.732L16.2469 171.731Z" fill="#D5A24F"/>
<path d="M20.5793 144.323C20.7021 144.295 20.8238 144.292 20.9466 144.323L25.25 148.495C25.448 148.53 27.094 146.598 27.4602 146.367C27.7023 146.214 27.8955 146.193 28.1627 146.304L30.9621 149.069C31.3008 149.583 30.9454 150.191 30.3275 150.112C29.8099 150.046 28.0816 147.817 27.8311 147.862C26.995 148.561 26.3235 149.571 25.3932 150.112L25.033 150.078L20.7331 145.926L16.6897 149.952C16.0456 150.443 15.287 149.765 15.726 149.069L20.2775 144.506C20.3634 144.425 20.46 144.349 20.5793 144.322V144.323Z" fill="#D5A24F"/>
<path d="M25.5019 139.165C29.0956 138.677 29.5346 143.933 26.2796 144.297C22.7777 144.688 22.3256 139.595 25.5019 139.165ZM25.744 140.452C23.844 140.731 24.6765 143.751 26.5193 142.844C27.7884 142.219 27.1383 140.248 25.744 140.452Z" fill="#D5A24F"/>
<path d="M39.9371 143.035L49.1976 143.016C50.0134 143.096 50.0146 144.229 49.1976 144.31H40.0802C39.3431 144.248 39.2417 143.267 39.9383 143.035H39.9371Z" fill="#D5A24F"/>
<path d="M39.9371 148.843L49.1976 148.824C50.0134 148.904 50.0146 150.037 49.1976 150.118H40.0802C39.3431 150.056 39.2417 149.076 39.9383 148.843H39.9371Z" fill="#D5A24F"/>
<path d="M39.936 137.231L46.6894 137.219C47.4038 137.331 47.4336 138.411 46.6154 138.506C44.5782 138.742 42.0901 138.33 40.004 138.5C39.323 138.394 39.28 137.424 39.936 137.231Z" fill="#D5A24F"/>
<path d="M44.4536 140.453L49.2711 140.441C49.9856 140.554 49.9832 141.611 49.2711 141.722C47.8804 141.939 45.9696 141.575 44.5216 141.722C43.8406 141.616 43.7976 140.647 44.4536 140.453Z" fill="#D5A24F"/>
<path d="M39.936 146.262L44.7535 146.25C45.468 146.362 45.4656 147.42 44.7535 147.531C43.3628 147.748 41.452 147.383 40.004 147.531C39.323 147.425 39.28 146.455 39.936 146.262Z" fill="#D5A24F"/>
<path d="M39.936 151.422C41.0083 151.506 42.4336 151.248 43.463 151.41C44.1774 151.522 44.1751 152.58 43.463 152.691C42.9119 152.777 40.5551 152.777 40.004 152.691C39.323 152.585 39.28 151.615 39.936 151.422Z" fill="#D5A24F"/>
<path d="M39.9373 140.453C40.1878 140.397 41.4258 140.399 41.6584 140.472C42.2357 140.652 42.1975 141.617 41.5284 141.722C41.2565 141.765 40.1138 141.765 39.8753 141.691C39.3147 141.516 39.3433 140.587 39.9373 140.454V140.453Z" fill="#D5A24F"/>
<path d="M47.6795 146.262C47.93 146.206 49.168 146.208 49.4006 146.281C49.9779 146.461 49.9397 147.426 49.2706 147.531C48.9987 147.574 47.856 147.574 47.6175 147.5C47.0569 147.324 47.0855 146.395 47.6795 146.263V146.262Z" fill="#D5A24F"/>
<path d="M40.5835 160.46C40.9198 160.404 41.2418 160.432 41.546 160.588C42.8783 161.492 44.535 162.159 45.8399 163.069C46.713 163.677 46.8513 164.618 46.082 165.395C44.6113 166.107 43.0167 167.42 41.546 168.037C40.624 168.423 39.5851 167.964 39.4742 166.933C39.2965 165.274 39.6006 163.309 39.4814 161.617C39.5517 161.096 40.0682 160.546 40.5823 160.46H40.5835ZM40.7659 161.852V166.772L40.9305 166.858C41.0498 166.782 41.1798 166.729 41.3051 166.665C42.4656 166.058 44.0186 165.205 45.098 164.489C45.1827 164.433 45.3043 164.405 45.2841 164.272L40.9305 161.765L40.7659 161.851V161.852Z" fill="#D5A24F"/>
<path d="M47.8726 169.463C48.1004 169.661 50.0673 169.002 49.7834 170.301C49.6021 171.13 48.0873 170.583 47.8726 170.772C47.7784 170.854 47.8631 171.388 47.2571 171.413C46.5916 171.441 46.5999 170.778 46.5236 170.757L36.2064 170.765C35.4359 170.723 35.381 169.595 36.1324 169.478H46.5236C46.6083 168.936 47.213 168.575 47.6639 168.986C47.8416 169.148 47.8487 169.443 47.8726 169.463Z" fill="#D5A24F"/>
<path d="M18.2349 163.612C19.145 164.522 17.7471 165.919 16.8382 165.009C15.9293 164.099 17.326 162.702 18.2349 163.612Z" fill="#D5A24F"/>
<path d="M22.7515 163.612C23.6616 164.522 22.2637 165.919 21.3548 165.009C20.4459 164.099 21.8426 162.702 22.7515 163.612Z" fill="#D5A24F"/>
<path d="M27.2686 163.612C28.1786 164.522 26.7807 165.919 25.8719 165.009C24.9618 164.099 26.3597 162.702 27.2686 163.612Z" fill="#D5A24F"/>
<path d="M546.5 186.301C528.275 186.301 513.5 171.526 513.5 153.301C513.5 135.075 528.275 120.301 546.5 120.301C564.725 120.301 579.5 135.075 579.5 153.301C579.5 171.526 564.725 186.301 546.5 186.301Z" fill="#F8F3FD" stroke="#D2B6F4"/>
<circle cx="76" cy="253.801" r="32.5" fill="#FFF9EF" stroke="#FCD799"/>
<path d="M56.4178 274C56.2294 273.844 56.0734 273.751 56.0318 273.487C55.9764 273.136 55.9868 271.418 56.1162 271.158C58.8399 267.891 61.3983 264.467 64.2376 261.306C64.3589 261.22 65.117 260.871 65.2094 260.871H69.7809V262.121H67.6315L61.106 270.874H90.9568L83.8061 262.121H81.6567V260.871H86.7748C87.3329 260.871 88.1487 261.547 88.4954 261.964L96.0355 271.264V274H56.4178ZM57.9813 270.874H59.4269L65.9513 262.238C66.0229 262.067 65.7467 262.117 65.6763 262.119C65.1123 262.14 64.8627 262.451 64.5057 262.824L57.9813 270.874ZM94.0838 270.874L87.5594 262.824C87.3722 262.622 86.888 262.121 86.6211 262.121H85.4874L92.6381 270.874H94.0838ZM94.7864 272.124H57.2775V272.749H94.7864V272.124Z" fill="#D5A24F"/>
<path d="M84.6034 249.333C84.7351 249.452 84.7732 249.643 84.7894 249.811C85.0552 252.627 84.5779 255.865 84.7859 258.726C84.7894 259.069 84.534 259.17 84.289 259.324C81.9663 260.788 78.9202 261.779 76.5282 263.206C76.1781 263.41 75.8845 263.409 75.5356 263.206C73.1262 261.797 70.1783 260.794 67.8256 259.351C67.6753 259.259 67.4119 259.141 67.3379 258.98L67.3252 249.546L67.4939 249.307L76.0683 246.492L84.6034 249.334V249.333ZM82.283 249.856L75.9955 247.82L69.7796 249.894L76.0579 252.494L82.283 249.856ZM75.4073 253.606L68.5305 250.793V258.295L75.4073 261.656V253.607V253.606ZM83.5345 250.792L76.6576 253.605V261.653L83.5345 258.293V250.791V250.792Z" fill="#D5A24F"/>
<path d="M64.292 234.008C64.6502 233.957 65.1749 234.175 65.5435 234.283C67.4571 234.84 69.3176 235.609 71.2312 236.174C71.4346 236.269 71.6542 236.444 71.6611 236.683C71.4832 239.178 71.883 241.967 71.6611 244.427C71.6357 244.704 71.5918 244.895 71.3214 245.026L64.5058 248.376L64.1776 248.309L57.5654 244.998C57.3574 244.876 57.2673 244.664 57.2765 244.427C57.451 241.983 57.0569 239.248 57.2765 236.84C57.3077 236.494 57.3851 236.333 57.7064 236.175L64.292 234.008ZM69.1558 236.804L64.4307 235.315L59.7783 236.804C59.9054 236.977 60.207 237.066 60.4058 237.152C61.7521 237.737 63.1272 238.276 64.4942 238.812L68.9756 236.975L69.1558 236.804ZM63.8413 239.93L58.528 237.742V244.033L63.8413 246.729V239.931V239.93ZM65.0917 246.728L70.405 244.032V237.741L65.0917 239.929V246.727V246.728Z" fill="#D5A24F"/>
<path d="M90.2364 238.382C90.5403 238.339 90.7367 238.428 91.0175 238.501C92.0841 238.779 93.9561 239.37 94.9419 239.813C95.3105 239.978 95.4237 240.08 95.4492 240.513L95.3729 245.867L94.7893 246.299L90.449 248.375C90.3288 248.393 90.2294 248.342 90.1208 248.307C89.5037 248.112 86.2196 246.468 85.6961 246.091C85.4546 245.917 85.4326 245.806 85.4072 245.52C85.294 244.278 85.294 241.754 85.4072 240.512C85.4384 240.166 85.5158 240.005 85.8371 239.848C86.4137 239.564 89.6505 238.467 90.2375 238.383L90.2364 238.382ZM92.9901 240.476L90.4524 239.693L87.9113 240.514L90.4536 241.561L92.9912 240.476H92.9901ZM89.7857 242.664L86.6598 241.413V245.125L89.7857 246.727V242.664ZM94.1618 241.413L91.036 242.664V246.727L94.1618 245.125V241.413Z" fill="#D5A24F"/>
<path d="M69.7806 264.621V265.871H68.2564L66.5762 268.372H85.2526L83.2986 265.871H81.6576V264.621H83.7284L84.0439 264.852L87.224 268.704C87.3708 269.032 87.2703 269.394 86.9513 269.563L65.2242 269.605C64.829 269.488 64.6684 269.076 64.8394 268.706L67.4002 264.86C67.4498 264.796 67.6555 264.621 67.7087 264.621H69.7795H69.7806Z" fill="#D5A24F"/>
<path d="M504 86.3008C486.051 86.3008 471.5 71.75 471.5 53.8008C471.5 35.8515 486.051 21.3008 504 21.3008C521.949 21.3008 536.5 35.8515 536.5 53.8008C536.5 71.75 521.949 86.3008 504 86.3008Z" fill="#F8F3FD" stroke="#D2B6F4"/>
<path d="M504.897 73.9697C504.522 74.0101 503.727 74.0101 503.352 73.9697C502.948 73.9258 502.164 73.6613 501.766 73.5031C499.269 72.5064 497.499 69.9368 496.321 67.6085C495.714 67.5981 495.111 67.6755 494.5 67.6513C493.082 67.5958 491.407 67.2863 490.11 66.7008C489.757 66.5414 488.882 65.9212 488.689 65.8704C488.363 65.7861 487.919 66.024 487.554 66.0113C484.962 65.9224 484.079 62.497 486.182 61.0395C486.106 58.4595 487.25 56.0827 488.58 53.9669C487.211 51.8985 486.114 49.4917 486.182 46.944C484.03 45.4784 484.997 41.9699 487.627 41.9687C487.962 41.9687 488.364 42.1986 488.689 42.1131C488.871 42.0657 489.719 41.4687 490.063 41.3127C491.648 40.5956 493.774 40.2826 495.508 40.3357C495.761 40.3438 496.052 40.5113 496.322 40.375C498.002 36.9091 501.156 33.2227 505.426 34.1432C508.47 34.8003 510.603 37.7303 511.928 40.375C512.198 40.5113 512.489 40.3438 512.742 40.3357C514.689 40.2768 516.977 40.6452 518.705 41.5703C518.881 41.6638 519.563 42.1755 519.618 42.1812C519.734 42.1939 520.287 41.971 520.547 41.9676C523.231 41.9283 524.244 45.4184 522.068 46.944C522.124 49.4929 521.035 51.8927 519.67 53.9669C520.994 56.0885 522.136 58.4583 522.07 61.0383C524.14 62.4958 523.256 65.9339 520.698 66.0125C520.357 66.0229 519.842 65.8011 519.563 65.8693C519.4 65.9097 518.475 66.5506 518.14 66.7019C516.276 67.5439 513.999 67.7575 511.983 67.5808C510.939 69.4587 509.817 71.3123 508.059 72.5965C507.229 73.2028 505.924 73.86 504.899 73.9708L504.897 73.9697ZM510.46 40.569C509.441 38.3932 507.517 35.9517 505.054 35.4551C501.718 34.783 499.105 37.8192 497.786 40.5297C499.938 40.8727 502.057 41.4167 504.09 42.2078C506.159 41.4802 508.27 40.8196 510.459 40.569H510.46ZM495.7 41.7401C493.661 41.6731 491.494 41.8775 489.751 43.0324C491.076 44.9068 489.768 47.3817 487.509 47.3586C487.635 49.3335 488.365 51.1513 489.365 52.8213C490.773 51.1351 492.27 49.5402 493.955 48.1324C494.379 45.9566 494.927 43.8131 495.7 41.7401ZM520.739 47.3586C518.862 47.3886 517.464 45.5685 518.129 43.7473C518.213 43.514 518.57 43.0855 518.419 42.9504C518.285 42.8314 517.492 42.4653 517.281 42.3822C515.784 41.7943 514.137 41.695 512.547 41.7401C513.278 43.7877 513.904 45.878 514.228 48.0412L516.644 50.2828L518.845 52.8201C519.891 51.1825 520.594 49.3173 520.739 47.3575V47.3586ZM502.192 43.0659C502.184 42.9585 502.079 42.9423 502.003 42.9065C501.47 42.6617 500.543 42.4619 499.952 42.3244C499.599 42.2424 497.306 41.7666 497.169 41.8521C496.451 43.4274 495.953 45.1089 495.624 46.8124L499.358 44.4575L502.192 43.0659ZM512.624 46.8124C512.276 45.1135 511.792 43.4297 511.08 41.8509C510.466 41.8221 506.201 42.7125 506.057 43.0278L509.045 44.5361L512.625 46.8124H512.624ZM487.257 43.3973C486.002 43.6583 486.02 45.8422 487.467 45.9589C489.57 46.1287 489.34 42.9642 487.257 43.3973ZM520.254 43.3973C519.512 43.5371 519.132 44.4333 519.369 45.1147C519.811 46.3885 521.731 46.1829 521.891 44.8941C522.019 43.8628 521.246 43.2114 520.254 43.3973ZM504.029 43.7045C503.713 43.7577 502.754 44.2392 502.397 44.4044C499.871 45.5674 497.496 47.0814 495.31 48.7965C494.86 51.6987 494.766 54.8493 495.084 57.7758C495.118 58.076 495.212 59.0531 495.347 59.2263C498.033 61.3086 500.973 63.094 504.157 64.2917C507.311 63.034 510.276 61.2982 512.94 59.187C513.389 56.2848 513.484 53.1342 513.165 50.2077C513.132 49.9075 513.037 48.9304 512.902 48.7572C510.702 47.0503 508.328 45.5443 505.8 44.3801C505.466 44.2265 504.303 43.6595 504.029 43.7057V43.7045ZM493.769 50.1685C493.635 50.1327 493.615 50.2251 493.537 50.2851C493.034 50.6743 492.172 51.6179 491.72 52.1179C491.192 52.7046 490.726 53.3583 490.221 53.9646C490.199 54.0893 491.599 55.7247 491.798 55.9441C491.938 56.0989 493.685 57.9236 493.769 57.8162C493.594 56.3044 493.542 54.773 493.535 53.2474L493.77 50.1685H493.769ZM514.48 57.8162C514.64 58.0218 517.863 54.3503 518.028 54.02C518.05 53.8953 516.65 52.26 516.451 52.0406C516.311 51.8858 514.565 50.0611 514.48 50.1685C514.634 51.0601 514.602 51.9643 514.631 52.864C514.638 53.0719 514.712 53.259 514.715 53.4819C514.731 54.9105 514.607 56.3968 514.481 57.8162H514.48ZM495.7 66.2434C494.926 64.1704 494.385 62.0246 493.955 59.8511C492.279 58.434 490.773 56.8484 489.365 55.1622C488.365 56.8322 487.635 58.65 487.509 60.6249C489.768 60.6018 491.076 63.0767 489.751 64.9511C491.494 66.106 493.661 66.3104 495.7 66.2434ZM520.739 60.6249C520.595 58.6639 519.893 56.7987 518.845 55.1622C517.481 56.9281 515.863 58.441 514.228 59.9423C513.901 62.1031 513.282 64.1981 512.547 66.2434C514.137 66.2885 515.784 66.1892 517.281 65.6013C517.492 65.5182 518.285 65.1521 518.419 65.0331C518.569 64.8991 518.213 64.4695 518.129 64.2362C517.465 62.415 518.864 60.596 520.739 60.6249ZM502.192 64.9188L499.358 63.5271L495.624 61.1735C495.963 62.8746 496.46 64.555 497.168 66.1349C497.302 66.2192 499.599 65.7434 499.951 65.6614C500.543 65.5239 501.469 65.3241 502.001 65.0793C502.078 65.0447 502.182 65.0273 502.191 64.9199L502.192 64.9188ZM512.624 61.1723L509.044 63.4486L506.056 64.9569C506.2 65.2722 510.463 66.1626 511.079 66.1337C511.792 64.555 512.276 62.8712 512.623 61.1723H512.624ZM487.257 62.0477C486.024 62.3041 486.054 64.3979 487.321 64.6C489.503 64.9476 489.453 61.5904 487.257 62.0477ZM520.254 62.0477C519.48 62.1932 519.129 63.1264 519.386 63.8251C519.818 64.9973 521.73 64.8379 521.891 63.5445C522.019 62.5131 521.246 61.8618 520.254 62.0477ZM510.46 67.4157C508.27 67.172 506.16 66.5021 504.091 65.7769C502.06 66.5703 499.938 67.105 497.787 67.4549C499.095 70.1666 501.729 73.1994 505.055 72.5295C507.519 72.0329 509.442 69.5915 510.461 67.4157H510.46Z" fill="#9C76CA"/>
<path d="M499.034 56.0313C498.752 56.5845 498.335 58.2522 497.861 58.5524C497.315 58.9001 496.76 58.3804 496.877 57.796L500.17 49.803C500.453 49.1424 501.209 49.1481 501.487 49.8261C502.406 52.3795 503.717 54.8833 504.625 57.4264C504.778 57.856 504.957 58.3688 504.4 58.6021C503.757 58.87 503.561 58.3388 503.337 57.8687C503.199 57.5789 502.694 56.0914 502.527 56.0336L499.033 56.0313H499.034ZM501.96 54.6154L500.877 51.8067L499.641 54.6154H501.96Z" fill="#9C76CA"/>
<path d="M508.761 50.6328V57.3439H510.345C510.37 57.3439 510.655 57.6395 510.676 57.7112C510.851 58.3013 510.514 58.6212 509.962 58.6743C508.692 58.7968 507.188 58.6039 505.897 58.6351C505.207 58.4214 505.414 57.3439 505.863 57.3439H507.331C507.441 57.2758 507.437 57.188 507.451 57.0748C507.672 55.1762 507.275 52.8479 507.451 50.9019L507.331 50.6328H505.863C505.414 50.6328 505.207 49.5541 505.897 49.3416C507.189 49.3728 508.692 49.1811 509.962 49.3024C510.514 49.3555 510.851 49.6766 510.676 50.2656C510.655 50.3372 510.369 50.6328 510.345 50.6328H508.761Z" fill="#9C76CA"/>
<path d="M545.24 135.845C546.721 135.692 547.942 134.9 549.044 136.326C549.121 136.427 549.228 136.784 549.298 136.8L554.998 136.818C556.292 137.121 557.155 138.105 557.259 139.454L557.253 152.303C561.138 154.179 562.725 158.451 561.04 162.491C560.862 162.916 560.337 163.421 560.687 163.871C561.11 163.86 561.51 163.805 561.852 164.107C563.099 165.566 564.863 166.883 566.057 168.351C567.678 170.345 565.439 172.839 563.346 171.488C562.7 170.57 558.844 167.369 558.689 166.588C558.645 166.36 558.695 166.13 558.66 165.903L558.597 165.808C558.301 165.597 557.537 166.112 557.267 166.299C557.07 168.727 558.148 172.299 554.92 172.977L529.488 173C528.373 172.87 527.481 172.093 527.117 171.03C526.881 160.473 527.087 149.871 527.014 139.296C527.118 138.074 528.091 137.026 529.275 136.819L534.981 136.804C535.051 136.784 535.054 136.56 535.119 136.455C536.11 134.858 537.549 135.697 539.035 135.847C539.409 132.045 544.796 132.057 545.241 135.847L545.24 135.845ZM548.224 139.576V137.154C548.224 137.103 547.941 136.751 547.874 136.712C547.251 136.353 545.221 137.25 544.557 137.055C543.973 136.885 544.195 136.199 544.12 135.743C543.775 133.646 540.572 133.592 540.167 135.601C540.073 136.067 540.282 136.757 539.758 137.016C539.165 137.31 537.017 136.33 536.332 136.725C536.254 136.77 536.048 137.012 536.048 137.074V139.574H548.224V139.576ZM534.87 137.909H529.411C529.359 137.909 528.909 138.135 528.827 138.192C528.393 138.493 528.135 139.003 528.113 139.533V170.261C528.195 171.185 528.807 171.805 529.723 171.888H554.55C555.163 171.838 555.804 171.422 556.02 170.832C556.047 170.759 556.158 170.297 556.158 170.257V166.724L555.066 166.891C554.961 167.015 555.118 169.686 555.051 170.17C555.012 170.454 554.9 170.68 554.61 170.756L537.741 170.771C537.206 170.721 536.777 170.514 536.364 170.178C534.427 167.912 531.701 165.869 529.843 163.59C529.458 163.117 529.263 162.704 529.214 162.083L529.277 139.357C529.303 139.29 529.542 139.019 529.57 139.019H534.873V137.907L534.87 137.909ZM556.157 151.879V139.456C556.157 138.867 555.39 137.907 554.783 137.907H549.324V139.019H554.626C554.856 139.019 555.107 139.538 555.062 139.77L555.059 151.72L556.158 151.879H556.157ZM534.949 140.131H530.315V162.16C530.315 162.261 530.579 162.726 530.667 162.836C531.727 164.161 534.75 162.625 536.012 163.943C536.993 164.967 536.276 167.189 536.538 168.492C536.623 168.914 537.311 169.661 537.738 169.661H553.88V167.003C553.708 166.795 553.399 166.911 553.144 166.875C552.863 166.835 551.953 166.547 551.81 166.562C551.78 166.566 551.665 166.845 551.331 166.888H539.622C538.736 166.781 539.02 165.772 539.389 165.772H550.032C549.291 165.101 548.499 164.469 547.934 163.628L539.55 163.624C538.747 163.496 539.078 162.517 539.31 162.517H547.283L546.719 160.506L546.604 160.385L533.026 160.375C532.086 160.308 532.208 159.186 533.104 159.183L546.53 159.188L546.89 157.12H532.868C532.849 157.12 532.556 156.959 532.536 156.939C532.141 156.537 532.492 155.927 533.022 155.927L547.307 155.916L548.851 153.786H544.177C543.789 153.786 543.622 152.838 544.272 152.692L550.298 152.669C551.417 152.108 552.608 151.686 553.877 151.642V140.132H549.321C549.279 140.132 549.416 140.618 548.812 140.69L535.239 140.671C535.021 140.571 534.915 140.376 534.947 140.132L534.949 140.131ZM553.785 152.777C551.208 152.943 548.836 154.72 548.045 157.216C546.373 162.488 551.366 167.305 556.491 165.356C557.44 164.994 558.307 164.168 559.34 164.966L559.75 164.543C558.948 163.322 560.033 162.28 560.359 161.088C561.538 156.778 558.219 152.494 553.785 152.777ZM535.42 167.518V165.176C535.42 164.87 535.054 164.501 534.752 164.501H532.435L535.42 167.518ZM561.006 164.988L559.801 166.167L559.806 166.325L564.016 170.571C564.958 171.139 565.912 170.126 565.305 169.188L561.227 165.052L561.006 164.988Z" fill="#9C76CA"/>
<path d="M532.725 142.371L542.141 142.429L542.296 142.669L542.336 151.925C542.286 152.372 541.872 152.413 541.51 152.441C538.806 152.654 535.831 152.271 533.098 152.441C532.554 152.388 532.398 152.226 532.352 151.686C532.125 148.914 532.532 145.832 532.352 143.026C532.338 142.75 532.486 142.503 532.726 142.371H532.725ZM535.498 143.465H533.456V151.245H541.232V143.465H539.19V145.966C539.19 146.121 538.908 146.293 538.754 146.318C538.284 146.394 536.491 146.391 536.005 146.327C535.773 146.297 535.499 146.022 535.499 145.807V143.465H535.498ZM538.09 143.465H536.677V145.212H538.09V143.465Z" fill="#9C76CA"/>
<path d="M544.194 142.924L551.327 142.906C552.017 142.946 552.053 143.997 551.327 144.021L544.258 144.018C543.691 143.8 543.688 143.231 544.194 142.925V142.924Z" fill="#9C76CA"/>
<path d="M544.274 146.179L551.328 146.16C551.973 146.168 552.062 147.192 551.409 147.277L544.259 147.271C543.664 147.048 543.687 146.389 544.274 146.178V146.179Z" fill="#9C76CA"/>
<path d="M551.737 149.599C551.904 149.779 551.891 150.317 551.644 150.457L544.333 150.533C543.572 150.463 543.706 149.469 544.411 149.419C546.589 149.573 549.026 149.221 551.172 149.417C551.328 149.431 551.634 149.489 551.737 149.6V149.599Z" fill="#9C76CA"/>
<path d="M541.999 135.22C543.067 135.042 543.289 136.764 542.206 136.872C541.124 136.98 540.976 135.39 541.999 135.22Z" fill="#9C76CA"/>
<path d="M553.626 153.728C558.124 153.274 561.222 158.265 558.86 162.192C556.88 165.486 552.296 165.754 549.875 162.792C547.086 159.379 549.309 154.164 553.626 153.728ZM554.097 154.837C548.144 154.951 548.522 164.247 554.623 163.706C560.017 163.227 559.692 154.731 554.097 154.837Z" fill="#9C76CA"/>
<path d="M500.062 269.672C500.129 269.786 500.216 269.95 500.31 270.14C500.428 270.38 500.562 270.66 500.698 270.933C500.835 271.205 500.972 271.468 501.098 271.672C501.16 271.774 501.22 271.859 501.273 271.924C501.328 271.99 501.373 272.028 501.406 272.042L501.479 272.066C501.657 272.114 501.878 272.091 502.047 272.022L506.362 269.672H500.062ZM516.876 264.052L521.45 261.653C521.55 261.557 521.611 261.468 521.645 261.384C521.678 261.299 521.686 261.215 521.675 261.13C521.664 261.042 521.633 260.953 521.593 260.857L521.447 260.549C520.339 258.246 518.895 255.469 517.55 253.136L516.98 252.166C516.966 252.142 516.955 252.115 516.943 252.092C516.932 252.067 516.921 252.044 516.908 252.024C516.898 252.009 516.887 251.997 516.876 251.986V264.052ZM487.12 244.356C486.945 244.514 486.902 244.691 486.922 244.875C486.943 245.065 487.032 245.264 487.125 245.46L487.628 246.493C488.839 248.928 490.302 251.514 491.592 253.845L491.646 253.95C491.666 253.989 491.686 254.028 491.708 254.065C491.729 254.102 491.752 254.134 491.774 254.16V241.955L487.12 244.356ZM502.294 236.339H508.512C508.441 236.219 508.354 236.054 508.264 235.866C508.152 235.634 508.028 235.368 507.901 235.108C507.774 234.849 507.645 234.599 507.521 234.4C507.46 234.301 507.4 234.215 507.344 234.148C507.316 234.115 507.289 234.087 507.264 234.064L507.192 234.013C507.099 233.963 507.016 233.926 506.919 233.925L502.294 236.339ZM516.896 249.956C517.724 251.663 518.673 253.344 519.618 255.027C520.565 256.713 521.509 258.401 522.323 260.113L522.472 260.451C522.601 260.781 522.671 261.085 522.644 261.375C522.607 261.766 522.397 262.123 521.95 262.482L521.942 262.488L521.941 262.487L516.801 265.2C516.8 265.202 516.8 265.203 516.8 265.205C516.797 265.213 516.795 265.224 516.793 265.237C516.788 265.264 516.783 265.3 516.78 265.344C516.774 265.432 516.772 265.55 516.771 265.688C516.771 265.965 516.78 266.323 516.79 266.692C516.8 267.061 516.812 267.441 516.815 267.763C516.818 268.003 516.817 268.213 516.807 268.361L516.794 268.487C516.739 268.841 516.525 269.124 516.248 269.325C516.006 269.501 515.714 269.615 515.429 269.659L515.307 269.674C514.203 269.769 513.036 269.729 511.87 269.687C510.706 269.644 509.542 269.6 508.434 269.688C507.518 270.138 506.615 270.643 505.712 271.147C505.033 271.527 504.352 271.906 503.666 272.261L502.978 272.607C502.906 272.642 502.828 272.684 502.746 272.727C502.665 272.769 502.579 272.814 502.493 272.855C502.364 272.918 502.23 272.974 502.102 273.008L501.976 273.033C501.517 273.094 501.145 272.981 500.835 272.758C500.527 272.535 500.282 272.205 500.069 271.838C499.857 271.47 499.674 271.06 499.496 270.674C499.321 270.296 499.149 269.942 498.955 269.668L493.118 269.672H493.112V269.671C492.41 269.595 491.804 268.967 491.772 268.255L491.771 268.253H491.772L491.758 256.207C490.944 254.526 490.043 252.887 489.138 251.248C488.457 250.017 487.775 248.785 487.125 247.539L486.488 246.287C486.249 245.804 486.002 245.326 485.957 244.867C485.935 244.636 485.963 244.408 486.07 244.185C486.177 243.962 486.361 243.747 486.644 243.54L486.649 243.536L491.766 240.811C491.816 240.47 491.802 240.046 491.778 239.591C491.754 239.127 491.723 238.633 491.751 238.175C491.779 237.717 491.865 237.288 492.083 236.958C492.303 236.625 492.653 236.398 493.191 236.338L493.593 236.301C494.545 236.231 495.588 236.275 496.638 236.32C497.836 236.372 499.043 236.426 500.142 236.32C501.144 235.892 502.139 235.311 503.133 234.729C504.128 234.147 505.122 233.563 506.119 233.138L506.325 233.059C506.792 232.901 507.174 232.923 507.497 233.07C507.864 233.238 508.145 233.565 508.385 233.951C508.625 234.337 508.828 234.791 509.034 235.218C509.237 235.638 509.444 236.033 509.692 236.324L515.457 236.337H515.464L515.457 236.385L515.464 236.338C515.907 236.402 516.245 236.601 516.479 236.893C516.714 237.183 516.844 237.563 516.881 237.987L516.882 237.991L516.896 249.956ZM492.73 268.1C492.72 268.341 492.826 268.539 493.031 268.651L515.223 268.714H515.225L515.314 268.712C515.515 268.696 515.679 268.592 515.776 268.412L515.839 237.912V237.91L515.838 237.82C515.821 237.619 515.717 237.455 515.536 237.357L493.141 237.317C492.872 237.397 492.718 237.627 492.73 237.91V268.1Z" fill="#9C76CA" stroke="#9C76CA" stroke-width="0.1"/>
<path d="M497.425 242.446C498.499 242.352 499.328 242.681 499.902 243.235C500.514 243.826 500.834 244.668 500.858 245.515C500.883 246.361 500.614 247.218 500.043 247.837C499.507 248.419 498.708 248.788 497.647 248.746L497.432 248.732C495.549 248.564 494.636 247.113 494.621 245.651C494.607 244.191 495.489 242.706 497.206 242.471L497.425 242.446ZM497.376 243.433C496.057 243.611 495.476 244.772 495.601 245.858C495.663 246.401 495.901 246.92 496.308 247.282C496.714 247.644 497.292 247.854 498.041 247.771L498.291 247.731C498.853 247.611 499.264 247.305 499.532 246.91C499.839 246.458 499.96 245.885 499.896 245.333C499.833 244.782 499.587 244.254 499.166 243.892C498.799 243.575 498.295 243.381 497.657 243.407L497.376 243.433Z" fill="#9C76CA" stroke="#9C76CA" stroke-width="0.1"/>
<path d="M497.479 250.367C498.434 250.283 499.203 250.568 499.767 251.06C500.366 251.583 500.729 252.339 500.835 253.126C500.941 253.913 500.791 254.734 500.36 255.39C499.956 256.005 499.306 256.472 498.396 256.626L498.21 256.652C497.129 256.78 496.282 256.487 495.683 255.964C495.084 255.442 494.737 254.693 494.647 253.914C494.469 252.356 495.321 250.658 497.285 250.389L497.479 250.367ZM497.454 251.351C496.07 251.529 495.465 252.704 495.592 253.794C495.656 254.339 495.902 254.859 496.324 255.22C496.745 255.579 497.344 255.783 498.118 255.689L498.361 255.647C498.906 255.523 499.301 255.217 499.556 254.824C499.848 254.374 499.957 253.805 499.89 253.257C499.822 252.709 499.578 252.184 499.17 251.821C498.814 251.505 498.33 251.309 497.723 251.328L497.454 251.351Z" fill="#9C76CA" stroke="#9C76CA" stroke-width="0.1"/>
<path d="M497.632 258.288C498.559 258.235 499.298 258.537 499.835 259.037C500.406 259.569 500.745 260.322 500.836 261.101C500.927 261.879 500.772 262.688 500.353 263.331C499.958 263.935 499.332 264.391 498.464 264.539L498.287 264.564C497.152 264.698 496.274 264.403 495.66 263.873C495.048 263.344 494.704 262.584 494.629 261.797C494.48 260.222 495.409 258.52 497.444 258.304L497.632 258.288ZM497.532 259.265C496.179 259.389 495.532 260.481 495.574 261.549C495.595 262.083 495.788 262.607 496.149 262.997C496.51 263.386 497.04 263.645 497.74 263.645L498.018 263.631C498.642 263.569 499.105 263.298 499.416 262.922C499.772 262.491 499.932 261.917 499.901 261.351C499.871 260.784 499.652 260.228 499.255 259.831C498.908 259.485 498.424 259.258 497.806 259.253L497.532 259.265Z" fill="#9C76CA" stroke="#9C76CA" stroke-width="0.1"/>
<path d="M513.42 260.95L513.566 260.97C513.889 261.036 514.079 261.234 514.086 261.455C514.093 261.677 513.916 261.883 513.577 261.963L513.422 261.989C511.896 262.158 510.219 262.095 508.539 262.021C506.857 261.948 505.172 261.864 503.623 261.99H503.619C503.251 261.994 503.008 261.783 502.964 261.539C502.942 261.418 502.97 261.291 503.056 261.187C503.141 261.082 503.28 261.003 503.472 260.97L503.48 260.968V260.969L513.416 260.95H513.42Z" fill="#9C76CA" stroke="#9C76CA" stroke-width="0.1"/>
<path d="M508.493 262.962C510.195 262.902 511.897 262.849 513.504 262.984L513.726 263.006C513.803 263.019 513.888 263.043 513.943 263.098L513.979 263.134L513.976 263.137C514.118 263.303 514.132 263.492 514.044 263.648C513.962 263.793 513.799 263.902 513.593 263.94L513.502 263.953C511.88 264.088 510.167 264.036 508.452 263.976C506.736 263.915 505.019 263.848 503.384 263.953L503.375 263.954L503.365 263.951L503.127 263.877L503.118 263.874L503.11 263.868C503.015 263.792 502.978 263.659 502.971 263.533C502.964 263.405 502.986 263.27 503.024 263.175L503.032 263.155L503.053 263.147L503.443 262.99L503.453 262.985L503.465 262.986C505.085 263.09 506.79 263.022 508.493 262.962Z" fill="#9C76CA" stroke="#9C76CA" stroke-width="0.1"/>
<path d="M508.492 245.095C510.194 245.034 511.895 244.982 513.502 245.117L513.724 245.139C513.801 245.152 513.887 245.176 513.942 245.23L513.957 245.245V245.249C514.117 245.42 514.136 245.618 514.044 245.781C513.962 245.925 513.799 246.034 513.593 246.073L513.502 246.086C511.893 246.22 510.194 246.168 508.492 246.108C506.79 246.049 505.086 245.982 503.464 246.084H503.454L503.444 246.081L503.091 245.964L503.072 245.958L503.063 245.94C502.96 245.754 502.929 245.552 502.992 245.392C503.057 245.227 503.217 245.12 503.46 245.119H503.464L504.075 245.15C505.51 245.206 507.002 245.148 508.492 245.095Z" fill="#9C76CA" stroke="#9C76CA" stroke-width="0.1"/>
<path d="M513.58 253.028L513.683 253.043C513.909 253.099 514.039 253.297 514.059 253.495C514.07 253.608 514.044 253.725 513.979 253.818C513.929 253.889 513.857 253.945 513.763 253.976L513.662 253.997L513.655 253.998V253.997L503.187 253.954H503.176L503.165 253.949C503.096 253.916 503.049 253.854 503.02 253.785C502.99 253.716 502.975 253.635 502.973 253.556C502.97 253.476 502.979 253.394 502.999 253.322C503.018 253.252 503.049 253.186 503.093 253.143L503.139 253.106C503.189 253.076 503.252 253.06 503.311 253.05C503.39 253.036 503.475 253.033 503.533 253.028H513.58Z" fill="#9C76CA" stroke="#9C76CA" stroke-width="0.1"/>
<path d="M513.662 255.067L513.764 255.089C513.857 255.119 513.93 255.175 513.979 255.246C514.045 255.34 514.07 255.457 514.059 255.57C514.037 255.796 513.87 256.022 513.58 256.037L513.578 256.038H503.533V256.037C503.476 256.032 503.39 256.028 503.312 256.015C503.234 256.002 503.148 255.977 503.093 255.922V255.921C503.05 255.877 503.019 255.812 503 255.742C502.981 255.671 502.971 255.589 502.974 255.509C502.976 255.429 502.991 255.348 503.021 255.279C503.05 255.21 503.097 255.149 503.166 255.115L503.176 255.11H503.188L513.656 255.067H513.662Z" fill="#9C76CA" stroke="#9C76CA" stroke-width="0.1"/>
<path d="M513.808 247.153L513.865 247.167C513.883 247.175 513.9 247.186 513.914 247.199C513.944 247.226 513.971 247.262 513.994 247.303C514.04 247.385 514.071 247.495 514.065 247.608C514.06 247.723 514.017 247.841 513.914 247.937C513.837 248.007 513.728 248.063 513.582 248.095L513.424 248.119C511.851 248.261 510.173 248.206 508.493 248.143C506.812 248.079 505.129 248.007 503.542 248.116L503.536 248.117V248.116C503.265 248.104 503.066 247.96 502.993 247.767C502.92 247.572 502.98 247.34 503.195 247.164L503.209 247.153H513.808Z" fill="#9C76CA" stroke="#9C76CA" stroke-width="0.1"/>
<path d="M505.818 258.981C506.643 258.952 507.468 258.924 508.25 258.99L508.472 259.013C508.549 259.026 508.635 259.05 508.69 259.104L508.747 259.171C508.796 259.238 508.824 259.309 508.832 259.381C508.842 259.476 508.817 259.568 508.768 259.649C508.681 259.79 508.521 259.901 508.333 259.943L508.251 259.957C507.747 260.016 506.799 260.044 505.854 260.044C505.145 260.044 504.434 260.028 503.91 259.995L503.455 259.957H503.454C503.286 259.938 503.159 259.874 503.073 259.785C502.988 259.696 502.946 259.583 502.944 259.472C502.941 259.248 503.096 259.027 503.373 258.991L503.383 258.989L503.379 259.04L503.383 258.99C504.168 259.044 504.993 259.011 505.818 258.981Z" fill="#9C76CA" stroke="#9C76CA" stroke-width="0.1"/>
<path d="M505.824 243.064C506.623 243.033 507.423 243.007 508.173 243.075L508.332 243.099C508.478 243.131 508.586 243.186 508.663 243.257C508.767 243.352 508.809 243.471 508.814 243.585C508.82 243.698 508.789 243.808 508.743 243.891C508.72 243.932 508.693 243.968 508.663 243.994C508.634 244.02 508.597 244.04 508.557 244.04H503.213V244.039C503.119 244.013 503.05 243.942 503.01 243.854C502.97 243.768 502.956 243.661 502.972 243.557C503.003 243.345 503.155 243.133 503.458 243.083L503.47 243.082L503.467 243.132L503.47 243.083C504.223 243.131 505.024 243.095 505.824 243.064Z" fill="#9C76CA" stroke="#9C76CA" stroke-width="0.1"/>
<path d="M508.558 251.075L508.614 251.089C508.632 251.097 508.649 251.108 508.663 251.121C508.693 251.147 508.72 251.184 508.743 251.225C508.789 251.307 508.821 251.417 508.815 251.53C508.81 251.645 508.767 251.763 508.663 251.858C508.586 251.929 508.478 251.985 508.332 252.017L508.174 252.041C507.425 252.109 506.624 252.082 505.824 252.051C505.023 252.02 504.223 251.984 503.47 252.032L503.459 252.033V252.032C503.207 251.995 503.035 251.842 502.981 251.652C502.928 251.462 502.995 251.245 503.195 251.086L503.209 251.075H508.558Z" fill="#9C76CA" stroke="#9C76CA" stroke-width="0.1"/>
<path d="M498.767 244.428C498.931 244.412 499.081 244.514 499.174 244.643C499.255 244.755 499.303 244.9 499.275 245.029L499.259 245.083C499.252 245.099 499.239 245.118 499.225 245.137C499.21 245.157 499.19 245.182 499.167 245.209C499.12 245.264 499.056 245.333 498.981 245.412C498.833 245.57 498.639 245.768 498.443 245.961C498.247 246.154 498.048 246.345 497.89 246.489C497.811 246.561 497.741 246.623 497.687 246.667C497.659 246.689 497.636 246.708 497.616 246.722L497.56 246.752C497.51 246.766 497.451 246.751 497.395 246.728C497.336 246.703 497.27 246.664 497.2 246.616C497.061 246.521 496.903 246.385 496.755 246.24C496.607 246.095 496.466 245.94 496.364 245.806C496.314 245.739 496.272 245.675 496.243 245.62C496.216 245.568 496.194 245.513 496.198 245.468L496.209 245.398C496.242 245.244 496.335 245.133 496.458 245.073C496.598 245.006 496.773 245.009 496.937 245.084L497.011 245.135C497.036 245.156 497.061 245.181 497.085 245.207C497.134 245.26 497.189 245.325 497.24 245.384C497.293 245.444 497.343 245.498 497.389 245.535C497.411 245.554 497.432 245.567 497.449 245.574C497.461 245.579 497.471 245.58 497.478 245.58C497.545 245.535 497.637 245.451 497.743 245.342C497.854 245.227 497.976 245.093 498.1 244.961C498.222 244.83 498.347 244.702 498.459 244.605C498.515 244.557 498.569 244.515 498.619 244.484C498.669 244.454 498.719 244.433 498.767 244.429V244.428Z" fill="#9C76CA" stroke="#9C76CA" stroke-width="0.1"/>
<path d="M498.605 252.424C498.782 252.37 498.975 252.407 499.112 252.501C499.234 252.584 499.316 252.716 499.3 252.873L499.287 252.942C499.284 252.953 499.279 252.962 499.274 252.969C499.27 252.977 499.264 252.986 499.257 252.995C499.243 253.014 499.225 253.037 499.203 253.063C499.159 253.117 499.098 253.186 499.025 253.266C498.88 253.425 498.689 253.629 498.495 253.829C498.302 254.029 498.106 254.228 497.951 254.38C497.874 254.456 497.806 254.52 497.755 254.567C497.729 254.591 497.707 254.61 497.689 254.625L497.643 254.658C497.582 254.685 497.513 254.717 497.426 254.701L497.418 254.7V254.699C497.314 254.662 497.156 254.564 496.99 254.436C496.823 254.306 496.644 254.143 496.5 253.972C496.357 253.802 496.242 253.618 496.213 253.449C496.198 253.364 496.205 253.279 496.243 253.203C496.281 253.127 496.349 253.065 496.445 253.017L496.55 252.976C496.652 252.947 496.747 252.955 496.835 252.985C496.95 253.025 497.049 253.104 497.134 253.185C497.176 253.225 497.216 253.267 497.253 253.307C497.29 253.347 497.324 253.384 497.355 253.415C497.387 253.446 497.415 253.469 497.439 253.483C497.457 253.494 497.47 253.496 497.479 253.497C497.544 253.458 497.628 253.384 497.724 253.286C497.822 253.184 497.929 253.063 498.036 252.943C498.143 252.824 498.25 252.706 498.346 252.613C498.394 252.567 498.44 252.525 498.482 252.493C498.524 252.462 498.566 252.437 498.605 252.425V252.424Z" fill="#9C76CA" stroke="#9C76CA" stroke-width="0.1"/>
<path d="M498.749 260.331C498.907 260.319 499.058 260.377 499.162 260.478C499.265 260.577 499.324 260.718 499.3 260.873L499.284 260.939C499.279 260.957 499.266 260.977 499.254 260.995C499.24 261.015 499.222 261.038 499.201 261.064C499.159 261.117 499.101 261.184 499.033 261.259C498.897 261.41 498.717 261.597 498.535 261.782C498.353 261.967 498.168 262.149 498.018 262.29C497.942 262.36 497.875 262.421 497.822 262.466C497.796 262.488 497.773 262.508 497.753 262.522L497.699 262.556C497.619 262.591 497.542 262.617 497.462 262.623C497.401 262.628 497.34 262.622 497.275 262.601L497.21 262.574C497.179 262.56 497.14 262.532 497.098 262.498C497.054 262.463 497.004 262.417 496.951 262.366C496.844 262.264 496.722 262.133 496.607 261.999C496.493 261.865 496.385 261.726 496.31 261.605C496.272 261.545 496.241 261.488 496.221 261.438C496.202 261.389 496.189 261.338 496.199 261.294L496.242 261.156C496.292 261.033 496.363 260.954 496.453 260.915C496.572 260.864 496.707 260.889 496.836 260.943C497.077 261.045 497.333 261.265 497.494 261.4C497.563 261.351 497.646 261.277 497.734 261.185C497.836 261.079 497.943 260.958 498.054 260.839C498.163 260.72 498.275 260.604 498.381 260.514C498.485 260.425 498.591 260.355 498.689 260.337L498.749 260.326V260.331Z" fill="#9C76CA" stroke="#9C76CA" stroke-width="0.1"/>
<defs>
<linearGradient id="paint0_linear_786_3510" x1="34" y1="153.301" x2="335" y2="153.301" gradientUnits="userSpaceOnUse">
<stop stop-color="#F8EAE6"/>
<stop offset="0.2492" stop-color="#F8EAE6"/>
<stop offset="0.6541" stop-color="#F5A548"/>
<stop offset="1" stop-color="#FBBF5D"/>
</linearGradient>
<linearGradient id="paint1_linear_786_3510" x1="245" y1="153.301" x2="546" y2="153.301" gradientUnits="userSpaceOnUse">
<stop stop-color="#4D3A64"/>
<stop offset="0.264423" stop-color="#8262A8"/>
<stop offset="0.682692" stop-color="#F8EAE6"/>
<stop offset="1" stop-color="#F8EAE6"/>
</linearGradient>
</defs>
</svg>
